<svg width="40" height="40" viewBox="0 0 40 40" fill="none" xmlns="http://www.w3.org/2000/svg">
<path d="M0 0H40V40H0V0Z" fill="#FFDF30"/>
<path d="M26.375 32H13.625C10.5234 32 8 29.4766 8 26.375V13.625C8 10.5234 10.5234 8 13.625 8H26.375C29.4766 8 32 10.5234 32 13.625V26.375C32 29.4766 29.4766 32 26.375 32ZM13.625 9.875C11.5573 9.875 9.875 11.5573 9.875 13.625V26.375C9.875 28.4427 11.5573 30.125 13.625 30.125H26.375C28.4427 30.125 30.125 28.4427 30.125 26.375V13.625C30.125 11.5573 28.4427 9.875 26.375 9.875H13.625ZM27.0312 11.75C26.5135 11.75 26.0938 12.1697 26.0938 12.6875V14.1875H24.0781V12.6875C24.0286 11.4436 22.2522 11.4446 22.2031 12.6875V14.1875H20.0938V12.6875C20.0443 11.4436 18.2678 11.4446 18.2188 12.6875V14.1875H16.0625V12.6875C16.013 11.4436 14.2366 11.4446 14.1875 12.6875V14.1875H12.6875C11.4436 14.237 11.4446 16.0134 12.6875 16.0625H14.1875V18.2656H12.6875C11.4436 18.3151 11.4446 20.0915 12.6875 20.1406H14.1875V22.25H12.6875C11.4436 22.2995 11.4446 24.0759 12.6875 24.125H14.1875V26.1406H12.6875C11.4436 26.1901 11.4446 27.9665 12.6875 28.0156H14.1875C15.2214 28.0156 16.0625 27.1745 16.0625 26.1406V16.0625H26.0938C27.1276 16.0625 27.9688 15.2214 27.9688 14.1875V12.6875C27.9688 12.1697 27.549 11.75 27.0312 11.75Z" fill="#292936"/>
</svg>
