<svg width="40" height="40" viewBox="0 0 40 40" fill="none" xmlns="http://www.w3.org/2000/svg">
<path d="M0 0H40V40H0V0Z" fill="#FFDF30"/>
<path d="M17.375 23.75C15.3073 23.75 13.625 22.0677 13.625 20C13.625 17.9323 15.3073 16.25 17.375 16.25C19.4427 16.25 21.125 17.9323 21.125 20C21.125 22.0677 19.4427 23.75 17.375 23.75ZM17.375 18.125C16.3411 18.125 15.5 18.9661 15.5 20C15.5 21.0339 16.3411 21.875 17.375 21.875C18.4089 21.875 19.25 21.0339 19.25 20C19.25 18.9661 18.4089 18.125 17.375 18.125Z" fill="#292936"/>
<path d="M31.0625 29.375H17.375C12.2056 29.375 8 25.1694 8 20C8 14.8306 12.2056 10.625 17.375 10.625C22.5444 10.625 26.75 14.8306 26.75 20C26.75 21.8643 26.2039 23.6655 25.1707 25.209C24.8827 25.6392 24.3005 25.7546 23.8702 25.4666C23.4399 25.1786 23.3246 24.5963 23.6126 24.166C24.4385 22.9322 24.875 21.4917 24.875 20C24.875 15.8645 21.5105 12.5 17.375 12.5C13.2395 12.5 9.875 15.8645 9.875 20C9.875 24.1355 13.2395 27.5 17.375 27.5H31.0625C31.5803 27.5 32 27.9197 32 28.4375C32 28.9553 31.5803 29.375 31.0625 29.375V29.375Z" fill="#292936"/>
</svg>
