<svg width="40" height="40" viewBox="0 0 40 40" fill="none" xmlns="http://www.w3.org/2000/svg">
<path d="M0 0H40V40H0V0Z" fill="#FFDF30"/>
<path d="M23.75 23C24.2678 23 24.6875 22.5803 24.6875 22.0625C24.6875 21.5447 24.2678 21.125 23.75 21.125C23.2322 21.125 22.8125 21.5447 22.8125 22.0625C22.8125 22.5803 23.2322 23 23.75 23Z" fill="#292936"/>
<path d="M25.625 8H14.375C12.8242 8 11.5625 9.26169 11.5625 10.8125V30.125H10.625C10.1072 30.125 9.6875 30.5447 9.6875 31.0625C9.6875 31.5803 10.1072 32 10.625 32H29.375C29.8928 32 30.3125 31.5803 30.3125 31.0625C30.3125 30.5447 29.8928 30.125 29.375 30.125H28.4375V10.8125C28.4375 9.26169 27.1758 8 25.625 8ZM13.4375 10.8125C13.4375 10.2956 13.8581 9.875 14.375 9.875H25.625C26.1419 9.875 26.5625 10.2956 26.5625 10.8125V30.125H13.4375V10.8125Z" fill="#292936"/>
<path d="M21.875 11.75H18.125C16.5742 11.75 15.3125 13.0117 15.3125 14.5625V16.4375C15.3125 17.9883 16.5742 19.25 18.125 19.25H21.875C23.4258 19.25 24.6875 17.9883 24.6875 16.4375V14.5625C24.6875 13.0117 23.4258 11.75 21.875 11.75ZM22.8125 16.4375C22.8125 16.9544 22.3919 17.375 21.875 17.375H18.125C17.6081 17.375 17.1875 16.9544 17.1875 16.4375V14.5625C17.1875 14.0456 17.6081 13.625 18.125 13.625H21.875C22.3919 13.625 22.8125 14.0456 22.8125 14.5625V16.4375Z" fill="#292936"/>
</svg>
