<svg width="40" height="40" viewBox="0 0 40 40" fill="none" xmlns="http://www.w3.org/2000/svg">
<path d="M0 0H40V40H0V0Z" fill="#FFDF30"/>
<path d="M10.8136 32C9.26279 32 8.0011 30.7383 8.0011 29.1875C8.0011 26.9877 9.93066 24.9946 10.1507 24.7746C10.5168 24.4085 11.1104 24.4085 11.4765 24.7746C11.6965 24.9946 13.6261 26.9877 13.6261 29.1875C13.6261 30.7383 12.3644 32 10.8136 32V32ZM10.8136 26.9007C10.3542 27.541 9.8761 28.4099 9.8761 29.1875C9.8761 29.7044 10.2967 30.125 10.8136 30.125C11.3305 30.125 11.7511 29.7044 11.7511 29.1875C11.7511 28.41 11.2733 27.5413 10.8136 26.9007Z" fill="#292936"/>
<path d="M30.6281 16.7787L27.9763 14.1268C27.6101 13.7607 27.0166 13.7607 26.6505 14.1268C26.2843 14.493 26.2843 15.0866 26.6505 15.4527L29.3023 18.1045C30.3989 19.2011 30.3989 20.9854 29.3023 22.082L23.999 27.3853C22.9025 28.4819 21.1181 28.4819 20.0216 27.3853L12.0666 19.4303C11.8895 19.2533 11.792 19.0179 11.792 18.7674C11.792 18.517 11.8895 18.2816 12.0666 18.1045L20.0216 10.1496C20.1986 9.97255 20.4341 9.875 20.6845 9.875C20.9349 9.875 21.1703 9.97255 21.3474 10.1496L23.3361 12.1383L20.5716 14.9028C19.5474 14.4125 18.2519 14.5708 17.3699 15.4529C16.2708 16.552 16.2707 18.3311 17.3699 19.4304C18.4691 20.5295 20.2481 20.5296 21.3474 19.4304C22.2298 18.548 22.3875 17.2524 21.8975 16.2286L27.9765 10.1496C28.3427 9.78345 28.3427 9.18987 27.9765 8.82378C27.6104 8.45769 27.0168 8.45764 26.6507 8.82378L24.6619 10.8125L22.6732 8.82378C22.142 8.29255 21.4357 8 20.6845 8C19.9332 8 19.2269 8.29255 18.6957 8.82378L10.7408 16.7787C10.2095 17.3099 9.91699 18.0162 9.91699 18.7674C9.91699 19.5187 10.2095 20.225 10.7408 20.7561L18.6957 28.7111C19.6096 29.6249 20.8099 30.0818 22.0103 30.0818C23.2106 30.0818 24.411 29.6249 25.3248 28.7111L30.6281 23.4078C32.4558 21.5802 32.4558 18.6064 30.6281 16.7787V16.7787ZM20.0216 18.1045C19.6552 18.4708 19.0621 18.471 18.6957 18.1045C18.3294 17.7382 18.3293 17.1452 18.6957 16.7787C19.062 16.4123 19.6551 16.4123 20.0216 16.7787C20.3879 17.1451 20.388 17.7381 20.0216 18.1045Z" fill="#292936"/>
</svg>
