<svg width="40" height="40" viewBox="0 0 40 40" fill="none" xmlns="http://www.w3.org/2000/svg">
<path d="M0 0H40V40H0V0Z" fill="#FFDF30"/>
<path d="M27.3125 32H12.6875C10.1028 32 8 29.8972 8 27.3125V12.6875C8 10.1028 10.1028 8 12.6875 8H27.3125C29.8972 8 32 10.1028 32 12.6875V27.3125C32 29.8972 29.8972 32 27.3125 32ZM12.6875 9.875C11.1367 9.875 9.875 11.1367 9.875 12.6875V27.3125C9.875 28.8633 11.1367 30.125 12.6875 30.125H27.3125C28.8633 30.125 30.125 28.8633 30.125 27.3125V12.6875C30.125 11.1367 28.8633 9.875 27.3125 9.875H12.6875Z" fill="#292936"/>
<path d="M20 28.4375C15.3476 28.4375 11.5625 24.6524 11.5625 20C11.5625 15.3476 15.3476 11.5625 20 11.5625C24.6524 11.5625 28.4375 15.3476 28.4375 20C28.4375 24.6524 24.6524 28.4375 20 28.4375ZM20 13.4375C16.3814 13.4375 13.4375 16.3814 13.4375 20C13.4375 23.6186 16.3814 26.5625 20 26.5625C23.6186 26.5625 26.5625 23.6186 26.5625 20C26.5625 16.3814 23.6186 13.4375 20 13.4375Z" fill="#292936"/>
<path d="M17.1875 22.8125C16.6697 22.8125 16.25 22.3928 16.25 21.875V18.125C16.25 17.6072 16.6697 17.1875 17.1875 17.1875C17.7053 17.1875 18.125 17.6072 18.125 18.125V21.875C18.125 22.3928 17.7053 22.8125 17.1875 22.8125Z" fill="#292936"/>
<path d="M22.8125 22.8125C22.2947 22.8125 21.875 22.3928 21.875 21.875V18.125C21.875 17.6072 22.2947 17.1875 22.8125 17.1875C23.3303 17.1875 23.75 17.6072 23.75 18.125V21.875C23.75 22.3928 23.3303 22.8125 22.8125 22.8125Z" fill="#292936"/>
</svg>
