<svg width="40" height="40" viewBox="0 0 40 40" fill="none" xmlns="http://www.w3.org/2000/svg">
<path d="M0 0H40V40H0V0Z" fill="#FFDF30"/>
<path d="M30.9016 12.8483C30.1933 12.14 29.2516 11.75 28.25 11.75V10.8125C28.25 9.26169 26.9883 8 25.4375 8H10.8125C9.26169 8 8 9.26169 8 10.8125V12.6875C8 14.2383 9.26169 15.5 10.8125 15.5H25.4375C26.6597 15.5 27.7017 14.7162 28.0887 13.625H28.25C28.7508 13.625 29.2216 13.82 29.5758 14.1741C29.93 14.5283 30.125 14.9991 30.125 15.5C30.125 16.5339 29.2839 17.375 28.25 17.375H21.6875C20.1367 17.375 18.875 18.6367 18.875 20.1875C18.875 20.7053 19.2947 21.125 19.8125 21.125C20.3303 21.125 20.75 20.7053 20.75 20.1875C20.75 19.6706 21.1706 19.25 21.6875 19.25H28.25C30.3177 19.25 32 17.5677 32 15.5C32 14.4983 31.6099 13.5566 30.9016 12.8483ZM25.4375 13.625H10.8125C10.2956 13.625 9.875 13.2044 9.875 12.6875V10.8125C9.875 10.2956 10.2956 9.875 10.8125 9.875H25.4375C25.9544 9.875 26.375 10.2956 26.375 10.8125V12.6875C26.375 13.2044 25.9544 13.625 25.4375 13.625Z" fill="#292936"/>
<path d="M19.8125 32C18.2617 32 17 30.7383 17 29.1875V25.8125C17 24.2617 18.2617 23 19.8125 23C21.3633 23 22.625 24.2617 22.625 25.8125V29.1875C22.625 30.7383 21.3633 32 19.8125 32ZM19.8125 24.875C19.2956 24.875 18.875 25.2956 18.875 25.8125V29.1875C18.875 29.7044 19.2956 30.125 19.8125 30.125C20.3294 30.125 20.75 29.7044 20.75 29.1875V25.8125C20.75 25.2956 20.3294 24.875 19.8125 24.875Z" fill="#292936"/>
</svg>
