<svg width="40" height="40" viewBox="0 0 40 40" fill="none" xmlns="http://www.w3.org/2000/svg">
<path d="M0 0H40V40H0V0Z" fill="#FFDF30"/>
<path d="M18.125 13.625H20C20.5178 13.625 20.9375 13.2053 20.9375 12.6875C20.9375 12.1697 20.5178 11.75 20 11.75H18.125C17.6072 11.75 17.1875 12.1697 17.1875 12.6875C17.1875 13.2053 17.6072 13.625 18.125 13.625Z" fill="#292936"/>
<path d="M25.625 18.5C26.1428 18.5 26.5625 18.0803 26.5625 17.5625V10.8125C26.5625 9.26169 25.3008 8 23.75 8H16.25C14.6992 8 13.4375 9.26169 13.4375 10.8125V17.5625C13.4375 18.0803 13.8572 18.5 14.375 18.5C14.8928 18.5 15.3125 18.0803 15.3125 17.5625V10.8125C15.3125 10.2956 15.7331 9.875 16.25 9.875H23.75C24.2669 9.875 24.6875 10.2956 24.6875 10.8125V17.5625C24.6875 18.0803 25.1072 18.5 25.625 18.5Z" fill="#292936"/>
<path d="M11.5625 19.8125C11.5625 23.019 13.3605 25.8132 16.0012 27.2405L15.6883 27.7824C15.4424 28.2082 15.3125 28.6941 15.3125 29.1875C15.3125 30.7383 16.5742 32 18.125 32H21.875C23.4258 32 24.6875 30.7383 24.6875 29.1875C24.6875 28.6941 24.5576 28.2082 24.3117 27.7824L23.9988 27.2405C26.6395 25.8133 28.4375 23.019 28.4375 19.8125C28.4375 18.2617 27.1758 17 25.625 17H14.375C12.8242 17 11.5625 18.2617 11.5625 19.8125V19.8125ZM22.688 28.72C22.7706 28.8631 22.8125 29.0204 22.8125 29.1875C22.8125 29.7044 22.3919 30.125 21.875 30.125H18.125C17.6081 30.125 17.1875 29.7044 17.1875 29.1875C17.1875 29.0204 17.2294 28.8631 17.312 28.72L17.7583 27.9471C18.4725 28.1442 19.2241 28.25 20 28.25C20.7759 28.25 21.5275 28.1442 22.2417 27.9471L22.688 28.72ZM14.375 18.875H25.625C26.1419 18.875 26.5625 19.2956 26.5625 19.8125C26.5625 23.4311 23.6186 26.375 20 26.375C16.3814 26.375 13.4375 23.4311 13.4375 19.8125C13.4375 19.2956 13.8581 18.875 14.375 18.875V18.875Z" fill="#292936"/>
</svg>
