<svg width="40" height="40" viewBox="0 0 40 40" fill="none" xmlns="http://www.w3.org/2000/svg">
<path d="M0 0H40V40H0V0Z" fill="#FFDF30"/>
<path d="M13.1578 16.745C14.6025 15.9074 15.5 14.3527 15.5 12.6875C15.5 12.1697 15.0803 11.75 14.5625 11.75C14.0448 11.75 13.625 12.1697 13.625 12.6875C13.625 13.6864 13.0857 14.6195 12.2173 15.1229C11.7694 15.3826 11.6168 15.9562 11.8765 16.4041C12.1343 16.849 12.7068 17.0064 13.1578 16.745V16.745Z" fill="#292936"/>
<path d="M10.8125 32H14.5625C16.1133 32 17.375 30.7383 17.375 29.1875V25.8125C17.375 23.5182 16.1912 21.4954 14.4027 20.3219C17.2647 18.9706 19.25 16.0567 19.25 12.6875V10.8125C19.25 10.4839 19.1928 10.1684 19.0887 9.875H20.9113C20.8072 10.1684 20.75 10.4839 20.75 10.8125V12.6875C20.75 17.3399 24.5351 21.125 29.1875 21.125C29.7045 21.125 30.125 21.5456 30.125 22.0625V29.1875C30.125 29.7044 29.7045 30.125 29.1875 30.125H25.4375C24.9206 30.125 24.5 29.7044 24.5 29.1875V25.8125C24.5 24.9424 24.7399 24.0934 25.1936 23.3571C25.4652 22.9164 25.3282 22.3388 24.8874 22.0671C24.4466 21.7955 23.8691 21.9326 23.5974 22.3733C22.9612 23.4055 22.625 24.5947 22.625 25.8125V29.1875C22.625 30.7383 23.8867 32 25.4375 32H29.1875C30.7383 32 32 30.7383 32 29.1875V22.0625C32 21.3427 31.7279 20.6855 31.2815 20.1875C31.7279 19.6895 32 19.0323 32 18.3125V10.8125C32 9.26169 30.7383 8 29.1875 8C28.1065 8 11.9142 8 10.8125 8C9.26169 8 8 9.26169 8 10.8125V18.3125C8 19.0323 8.27211 19.6895 8.71845 20.1875C8.27211 20.6855 8 21.3427 8 22.0625V29.1875C8 30.7383 9.26169 32 10.8125 32ZM15.5 25.8125V29.1875C15.5 29.7044 15.0794 30.125 14.5625 30.125H10.8125C10.2956 30.125 9.875 29.7044 9.875 29.1875V22.0625C9.875 21.5456 10.2956 21.125 10.8125 21.125C13.3972 21.125 15.5 23.2278 15.5 25.8125ZM30.125 10.8125V18.3125C30.125 18.8294 29.7044 19.25 29.1875 19.25C25.5689 19.25 22.625 16.3061 22.625 12.6875V10.8125C22.625 10.2956 23.0456 9.875 23.5625 9.875H29.1875C29.7044 9.875 30.125 10.2956 30.125 10.8125ZM9.875 10.8125C9.875 10.2956 10.2956 9.875 10.8125 9.875H16.4375C16.9544 9.875 17.375 10.2956 17.375 10.8125V12.6875C17.375 16.3061 14.4311 19.25 10.8125 19.25C10.2956 19.25 9.875 18.8294 9.875 18.3125V10.8125Z" fill="#292936"/>
<path d="M26.8423 16.745C27.2875 17.0031 27.8622 16.855 28.1235 16.4042C28.3832 15.9562 28.2306 15.3826 27.7827 15.1229C26.9144 14.6195 26.375 13.6864 26.375 12.6875C26.375 12.1697 25.9553 11.75 25.4375 11.75C24.9197 11.75 24.5 12.1697 24.5 12.6875C24.5 14.3527 25.3975 15.9074 26.8423 16.745V16.745Z" fill="#292936"/>
</svg>
