<svg width="61" height="60" viewBox="0 0 61 60" fill="none" xmlns="http://www.w3.org/2000/svg">
<path d="M34.944 17.7524C31.5373 17.7524 28.2072 18.7626 25.3747 20.6552C22.5422 22.5479 20.3345 25.2379 19.0309 28.3852C17.7272 31.5326 17.3861 34.9958 18.0507 38.3369C18.7153 41.6781 20.3557 44.7472 22.7646 47.156C25.1734 49.5649 28.2425 51.2053 31.5837 51.8699C34.9248 52.5345 38.3881 52.1934 41.5354 50.8898C44.6827 49.5861 47.3727 47.3784 49.2654 44.5459C51.158 41.7134 52.1682 38.3833 52.1682 34.9767C52.1631 30.4101 50.3468 26.032 47.1177 22.8029C43.8886 19.5739 39.5105 17.7575 34.944 17.7524V17.7524ZM35.7643 50.5382V48.9496C35.7643 48.7321 35.6778 48.5234 35.524 48.3696C35.3702 48.2157 35.1615 48.1293 34.944 48.1293C34.7264 48.1293 34.5177 48.2157 34.3639 48.3696C34.2101 48.5234 34.1236 48.7321 34.1236 48.9496V50.5382C30.2814 50.3308 26.6512 48.7111 23.9303 45.9903C21.2095 43.2694 19.5898 39.6392 19.3824 35.797H20.971C21.1885 35.797 21.3972 35.7105 21.551 35.5567C21.7049 35.4029 21.7913 35.1942 21.7913 34.9767C21.7913 34.7591 21.7049 34.5504 21.551 34.3966C21.3972 34.2428 21.1885 34.1563 20.971 34.1563H19.3824C19.5898 30.3141 21.2095 26.6839 23.9303 23.9631C26.6512 21.2422 30.2814 19.6225 34.1236 19.4151V21.0037C34.1236 21.2213 34.2101 21.4299 34.3639 21.5837C34.5177 21.7376 34.7264 21.824 34.944 21.824C35.1615 21.824 35.3702 21.7376 35.524 21.5837C35.6778 21.4299 35.7643 21.2213 35.7643 21.0037V19.4151C39.6065 19.6225 43.2367 21.2422 45.9576 23.9631C48.6784 26.6839 50.2981 30.3141 50.5055 34.1563H48.9169C48.6994 34.1563 48.4907 34.2428 48.3369 34.3966C48.183 34.5504 48.0966 34.7591 48.0966 34.9767C48.0966 35.1942 48.183 35.4029 48.3369 35.5567C48.4907 35.7105 48.6994 35.797 48.9169 35.797H50.5055C50.2981 39.6392 48.6784 43.2694 45.9576 45.9903C43.2367 48.7111 39.6065 50.3308 35.7643 50.5382V50.5382Z" fill="#48485C"/>
<path d="M39.3441 13.1151V9.68577C40.2351 9.5966 41.0578 9.16825 41.6418 8.48937C42.2259 7.8105 42.5265 6.93307 42.4816 6.03868C42.4367 5.14429 42.0496 4.30141 41.4005 3.68448C40.7514 3.06755 39.8899 2.7238 38.9944 2.72437H30.8934C29.9979 2.7238 29.1365 3.06755 28.4874 3.68448C27.8382 4.30141 27.4512 5.14429 27.4062 6.03868C27.3613 6.93307 27.662 7.8105 28.246 8.48937C28.83 9.16825 29.6527 9.5966 30.5438 9.68577V13.1151C27.3511 13.7639 24.3386 15.1021 21.7168 17.0362C19.0951 18.9703 16.9274 21.4537 15.3652 24.3126H7.2975C7.07994 24.3126 6.87129 24.3991 6.71746 24.5529C6.56362 24.7068 6.47719 24.9154 6.47719 25.133C6.47719 25.3505 6.56362 25.5592 6.71746 25.713C6.87129 25.8668 7.07994 25.9533 7.2975 25.9533H14.5594C14.2023 26.7518 13.8932 27.5709 13.6336 28.4062H4.71985C4.50229 28.4062 4.29364 28.4927 4.1398 28.6465C3.98596 28.8003 3.89954 29.009 3.89954 29.2266C3.89954 29.4441 3.98596 29.6528 4.1398 29.8066C4.29364 29.9604 4.50229 30.0469 4.71985 30.0469H13.2005C12.9941 30.9518 12.8446 31.8687 12.7528 32.7923H8.86219C8.64463 32.7923 8.43598 32.8788 8.28214 33.0326C8.12831 33.1864 8.04188 33.3951 8.04188 33.6126C8.04188 33.8302 8.12831 34.0389 8.28214 34.1927C8.43598 34.3465 8.64463 34.433 8.86219 34.433H12.6591C12.6544 34.6139 12.645 34.7939 12.645 34.9758C12.6463 36.6364 12.8332 38.2917 13.2023 39.9108H5.97797C5.76041 39.9108 5.55176 39.9972 5.39793 40.151C5.24409 40.3049 5.15766 40.5135 5.15766 40.7311C5.15766 40.9486 5.24409 41.1573 5.39793 41.3111C5.55176 41.465 5.76041 41.5514 5.97797 41.5514H13.635C14.7963 45.315 16.9337 48.7039 19.8298 51.3734C22.7259 54.0428 26.2774 55.8976 30.1229 56.7491C33.9685 57.6005 37.971 57.4182 41.7233 56.2207C45.4755 55.0233 48.8437 52.8533 51.4852 49.9317C54.1266 47.01 55.9471 43.4409 56.7615 39.5873C57.5759 35.7337 57.3551 31.7331 56.1215 27.9926C54.888 24.252 52.6858 20.9049 49.7388 18.2917C46.7918 15.6785 43.2053 13.8924 39.3441 13.1151V13.1151ZM29.0442 6.21421C29.0447 5.72392 29.2397 5.25385 29.5864 4.90716C29.9331 4.56047 30.4032 4.36549 30.8934 4.36499H38.9944C39.2397 4.36109 39.4833 4.40602 39.711 4.49719C39.9388 4.58836 40.1461 4.72393 40.321 4.89601C40.4958 5.06809 40.6347 5.27324 40.7294 5.49952C40.8242 5.72579 40.873 5.96866 40.873 6.21398C40.873 6.4593 40.8242 6.70216 40.7294 6.92844C40.6347 7.15471 40.4958 7.35986 40.321 7.53194C40.1461 7.70402 39.9388 7.83959 39.711 7.93076C39.4833 8.02193 39.2397 8.06687 38.9944 8.06296H38.5327H38.5238H31.3641H31.3552H30.8934C30.4032 8.06246 29.9332 7.86754 29.5866 7.52095C29.2399 7.17437 29.0448 6.70442 29.0442 6.21421V6.21421ZM32.1848 9.70358H37.7034V12.8541C35.8713 12.6184 34.0165 12.6184 32.1844 12.8541L32.1848 9.70358ZM34.9444 55.635C30.8584 55.6351 26.8642 54.4235 23.4668 52.1536C20.0694 49.8836 17.4215 46.6571 15.8578 42.8822C14.2941 39.1073 13.885 34.9535 14.6821 30.946C15.4792 26.9386 17.4468 23.2575 20.336 20.3683C23.2252 17.4791 26.9063 15.5115 30.9137 14.7144C34.9212 13.9173 39.075 14.3265 42.8499 15.8901C46.6248 17.4538 49.8513 20.1018 52.1212 23.4991C54.3912 26.8965 55.6028 30.8908 55.6027 34.9767C55.5963 40.4538 53.4177 45.7047 49.5448 49.5775C45.6719 53.4503 40.421 55.6288 34.9439 55.635H34.9444Z" fill="#48485C"/>
<path d="M35.7642 30.6563V24.5836C35.7642 24.3661 35.6778 24.1574 35.524 24.0036C35.3701 23.8497 35.1615 23.7633 34.9439 23.7633C34.7263 23.7633 34.5177 23.8497 34.3639 24.0036C34.21 24.1574 34.1236 24.3661 34.1236 24.5836V30.6563C33.0474 30.8605 32.0861 31.459 31.4278 32.3345C30.7694 33.21 30.4614 34.2997 30.564 35.3903C30.6666 36.4809 31.1724 37.494 31.9824 38.2314C32.7925 38.9689 33.8485 39.3776 34.9439 39.3776C36.0393 39.3776 37.0954 38.9689 37.9054 38.2314C38.7154 37.494 39.2212 36.4809 39.3238 35.3903C39.4264 34.2997 39.1184 33.21 38.4601 32.3345C37.8017 31.459 36.8404 30.8605 35.7642 30.6563ZM34.9439 37.7344C34.3982 37.7345 33.8647 37.5727 33.4109 37.2696C32.9571 36.9665 32.6034 36.5356 32.3945 36.0314C32.1856 35.5272 32.1309 34.9724 32.2374 34.4372C32.3438 33.9019 32.6066 33.4103 32.9925 33.0244C33.3784 32.6385 33.87 32.3757 34.4053 32.2693C34.9405 32.1628 35.4953 32.2175 35.9995 32.4264C36.5037 32.6353 36.9346 32.989 37.2377 33.4428C37.5408 33.8966 37.7026 34.4301 37.7025 34.9758C37.7015 35.7071 37.4106 36.4082 36.8934 36.9253C36.3763 37.4425 35.6752 37.7334 34.9439 37.7344V37.7344Z" fill="#FFDF30"/>
</svg>
