<svg width="61" height="60" viewBox="0 0 61 60" fill="none" xmlns="http://www.w3.org/2000/svg">
<path d="M16.5801 45.9881C16.5857 46.1026 16.6153 46.2146 16.6669 46.3169C16.7186 46.4192 16.7913 46.5095 16.8801 46.582C20.9903 49.9396 26.2009 51.6513 31.5015 51.385C36.8021 51.1187 41.8149 48.8934 45.5679 45.1407C49.3208 41.388 51.5464 36.3753 51.813 31.0747C52.0796 25.7742 50.3683 20.5634 47.0109 16.4531C46.9383 16.3643 46.848 16.2918 46.7457 16.2401C46.6434 16.1884 46.5314 16.1587 46.4169 16.153C46.3024 16.1473 46.188 16.1656 46.0811 16.2068C45.9741 16.2479 45.8769 16.3111 45.7959 16.3921L16.8196 45.3674C16.7386 45.4484 16.6753 45.5455 16.6341 45.6524C16.5928 45.7593 16.5744 45.8736 16.5801 45.9881V45.9881ZM27.9909 36.5156C31.0159 36.6093 34.0438 36.5358 37.0607 36.2953C36.5999 40.2107 34.326 41.8663 30.4284 41.8663C27.8221 41.8663 26.0264 41.1056 24.944 39.562L27.9909 36.5156ZM35.9681 28.5388C36.1837 29.0685 36.2559 29.3001 36.3473 29.5813C35.8471 29.6188 35.3395 29.6512 34.8271 29.6798L35.9681 28.5388ZM33.111 31.3959C34.3593 31.3537 35.5907 31.2885 36.7804 31.1943C37.0228 32.3291 37.1484 33.4858 37.1554 34.6462C34.6664 34.8473 32.137 34.9302 29.6039 34.9045L33.111 31.3959ZM37.2135 27.2934L41.0371 23.4698L39.5718 26.0681L37.3078 27.494C37.2778 27.426 37.2445 27.3604 37.2135 27.2934ZM23.7646 40.7423C25.1676 42.577 27.4026 43.5079 30.4284 43.5079C33.9824 43.5079 36.441 42.2118 37.7334 39.726L39.5718 40.8838L41.3282 43.9987C41.4351 44.1882 41.613 44.3275 41.8226 44.3859C42.0322 44.4443 42.2564 44.4171 42.446 44.3102C42.6355 44.2033 42.7748 44.0254 42.8332 43.8158C42.8916 43.6062 42.8644 43.382 42.7574 43.1924L40.8989 39.8971C40.8319 39.7786 40.7365 39.6786 40.6214 39.606L38.3451 38.1721C38.6525 37.0308 38.8041 35.853 38.7956 34.671L41.1721 34.5009C41.2414 34.4957 41.3097 34.482 41.3756 34.4601L44.5846 33.3778C44.6867 33.3434 44.781 33.2892 44.8622 33.2184C44.9434 33.1476 45.0098 33.0614 45.0577 32.9649C45.1056 32.8684 45.134 32.7634 45.1413 32.656C45.1486 32.5485 45.1346 32.4406 45.1003 32.3385C45.0659 32.2364 45.0117 32.1421 44.9409 32.061C44.8701 31.9798 44.7839 31.9134 44.6874 31.8655C44.5909 31.8176 44.486 31.7892 44.3785 31.7819C44.271 31.7746 44.1631 31.7885 44.061 31.8229L40.949 32.871L38.7117 33.0313C38.5931 31.6809 38.3207 30.3483 37.8998 29.0596L40.6185 27.3459C40.7338 27.2735 40.8292 27.1734 40.896 27.0548L42.7565 23.7599C42.8304 23.6295 42.8671 23.4813 42.8625 23.3314C42.858 23.1816 42.8124 23.0359 42.7307 22.9101C42.6491 22.7844 42.5345 22.6835 42.3994 22.6185C42.2643 22.5534 42.114 22.5267 41.9648 22.5412L46.2989 18.2071C49.1282 22.0153 50.4941 26.7138 50.1471 31.4453C49.8002 36.1768 47.7636 40.6259 44.409 43.9806C41.0544 47.3353 36.6054 49.3721 31.8739 49.7192C27.1424 50.0663 22.4438 48.7006 18.6356 45.8713L23.7646 40.7423Z" fill="#48485C"/>
<path d="M30.4284 55.5417C35.4801 55.5417 40.4183 54.0437 44.6187 51.2371C48.819 48.4306 52.0927 44.4415 54.0259 39.7744C55.9591 35.1072 56.4649 29.9716 55.4794 25.017C54.4938 20.0624 52.0612 15.5113 48.4892 11.9393C44.9171 8.36719 40.366 5.93457 35.4114 4.94904C30.4568 3.96351 25.3212 4.46932 20.654 6.40251C15.9869 8.3357 11.9978 11.6095 9.19127 15.8098C6.38471 20.0101 4.88672 24.9483 4.88672 30C4.89441 36.7717 7.58788 43.2639 12.3762 48.0522C17.1645 52.8405 23.6567 55.534 30.4284 55.5417V55.5417ZM30.4284 6.09889C35.1556 6.09889 39.7767 7.50066 43.7072 10.1269C47.6377 12.7532 50.7012 16.4861 52.5102 20.8534C54.3192 25.2208 54.7925 30.0265 53.8703 34.6629C52.948 39.2992 50.6717 43.558 47.3291 46.9006C43.9864 50.2432 39.7277 52.5196 35.0913 53.4418C30.455 54.3641 25.6492 53.8907 21.2819 52.0817C16.9145 50.2727 13.1817 47.2092 10.5554 43.2787C7.92912 39.3482 6.52734 34.7272 6.52734 30C6.53454 23.6632 9.05499 17.5881 13.5358 13.1073C18.0165 8.62654 24.0917 6.10608 30.4284 6.09889V6.09889Z" fill="#FFDF30"/>
<path d="M14.4404 43.8482H14.4812C14.6986 43.8482 14.9072 43.7619 15.061 43.6082C44.6499 14.0259 43.9895 14.6803 44.0373 14.6324C44.1184 14.5515 44.1816 14.4544 44.2229 14.3475C44.2641 14.2406 44.2825 14.1262 44.2768 14.0117C44.2711 13.8973 44.2415 13.7853 44.1898 13.683C44.1381 13.5807 44.0656 13.4904 43.9768 13.4179C39.8667 10.0602 34.656 8.34859 29.3554 8.61488C24.0548 8.88118 19.042 11.1064 15.2891 14.8592C11.5361 18.6119 9.31053 23.6246 9.0439 28.9251C8.77728 34.2257 10.4886 39.4365 13.846 43.5468C13.9184 43.6359 14.0087 43.7088 14.1111 43.7608C14.2135 43.8127 14.3257 43.8425 14.4404 43.8482V43.8482ZM34.921 21.4288L31.7837 24.5662C31.3337 24.6166 30.8813 24.6421 30.4285 24.6426C28.1991 24.6426 25.876 24.2629 25.876 22.041C25.9207 20.9171 26.3792 19.8493 27.1634 19.0429C27.9477 18.2365 29.0023 17.7485 30.1246 17.6725C31.2468 17.5966 32.3576 17.9381 33.2433 18.6315C34.129 19.3249 34.7272 20.3212 34.9229 21.4288H34.921ZM26.5552 25.6096C27.6735 26.0621 28.8707 26.2876 30.077 26.2729L26.6377 29.7121C25.9299 29.6774 25.2231 29.6329 24.5171 29.5785C24.9591 28.1465 25.6489 26.8032 26.5552 25.6096V25.6096ZM23.8595 32.4534C23.9181 32.0315 23.9912 31.6096 24.0807 31.1948C24.4163 31.2215 24.7548 31.2346 25.0923 31.2576L23.8538 32.496L23.8595 32.4534ZM30.4285 10.2257C34.6762 10.2291 38.8103 11.5973 42.2213 14.1285L36.2485 20.1013C36.004 19.4652 35.6555 18.874 35.2173 18.352C35.8838 17.6412 36.3037 16.7348 36.4149 15.7668L36.617 14.0409C36.6403 13.8258 36.5777 13.6103 36.4429 13.4411C36.3081 13.272 36.1119 13.163 35.8971 13.1377C35.6822 13.1125 35.4661 13.1732 35.2958 13.3065C35.1255 13.4398 35.0147 13.635 34.9876 13.8496L34.7851 15.576C34.704 16.1934 34.4363 16.7712 34.0177 17.2321C32.9825 16.4536 31.7225 16.032 30.4272 16.0307C29.1319 16.0293 27.8711 16.4483 26.8341 17.2246C26.4139 16.7686 26.1479 16.1918 26.0738 15.576L25.8713 13.8496C25.8597 13.7419 25.8268 13.6376 25.7746 13.5427C25.7223 13.4478 25.6518 13.3641 25.5671 13.2966C25.4824 13.2291 25.3852 13.179 25.281 13.1492C25.1768 13.1195 25.0678 13.1107 24.9602 13.1233C24.8526 13.136 24.7485 13.1698 24.6541 13.2228C24.5596 13.2759 24.4766 13.3471 24.4098 13.4324C24.3431 13.5177 24.2939 13.6154 24.265 13.7199C24.2362 13.8243 24.2284 13.9334 24.242 14.0409L24.444 15.7673C24.5719 16.7252 24.9857 17.6222 25.6313 18.3412C24.748 19.3734 24.2544 20.6826 24.2363 22.041C24.2055 23.0116 24.5529 23.9561 25.2052 24.6754C24.5401 25.5435 23.9838 26.4898 23.5487 27.4931L21.286 26.0681L19.5296 22.9537C19.4767 22.8598 19.4058 22.7773 19.321 22.7109C19.2361 22.6445 19.1391 22.5954 19.0353 22.5665C18.9315 22.5375 18.823 22.5293 18.716 22.5423C18.6091 22.5553 18.5057 22.5893 18.4119 22.6422C18.318 22.6951 18.2355 22.7661 18.1691 22.8509C18.1027 22.9357 18.0536 23.0328 18.0247 23.1366C17.9957 23.2404 17.9875 23.3488 18.0005 23.4558C18.0135 23.5627 18.0475 23.6661 18.1004 23.7599L19.959 27.0548C20.0258 27.1734 20.1212 27.2735 20.2365 27.3459L22.9552 29.0578C22.5388 30.3483 22.2656 31.6806 22.1406 33.0309L19.9084 32.871L16.7963 31.8229C16.5902 31.7534 16.3648 31.7687 16.1699 31.8653C15.9749 31.962 15.8264 32.1321 15.7569 32.3383C15.6874 32.5445 15.7026 32.7698 15.7993 32.9648C15.896 33.1597 16.0661 33.3083 16.2723 33.3778L19.4827 34.4592C19.5486 34.4811 19.6169 34.4948 19.6862 34.4999L21.7065 34.6448L14.5571 41.7928C12.3711 38.8513 11.0456 35.3602 10.7286 31.7092C10.4115 28.0581 11.1154 24.3908 12.7616 21.1165C14.4078 17.8423 16.9317 15.09 20.0513 13.1669C23.171 11.2438 26.7637 10.2255 30.4285 10.2257V10.2257Z" fill="#48485C"/>
</svg>
