<svg width="61" height="60" viewBox="0 0 61 60" fill="none" xmlns="http://www.w3.org/2000/svg">
<path d="M13.5231 41.0428C13.0116 41.0429 12.5117 41.1947 12.0864 41.4789C11.6612 41.7632 11.3298 42.1671 11.1342 42.6397C10.9385 43.1123 10.8874 43.6323 10.9873 44.1339C11.0872 44.6356 11.3335 45.0963 11.6953 45.4579C12.057 45.8195 12.5179 46.0657 13.0195 46.1654C13.5212 46.2651 14.0412 46.2138 14.5137 46.018C14.9862 45.8222 15.39 45.4906 15.6741 45.0653C15.9582 44.64 16.1098 44.14 16.1097 43.6285C16.1089 42.9428 15.8362 42.2854 15.3512 41.8006C14.8663 41.3159 14.2088 41.0433 13.5231 41.0428V41.0428ZM13.5231 44.5744C13.3362 44.5743 13.1534 44.5188 12.998 44.4149C12.8426 44.3109 12.7215 44.1633 12.65 43.9905C12.5785 43.8178 12.5598 43.6277 12.5963 43.4444C12.6328 43.261 12.7229 43.0926 12.855 42.9604C12.9872 42.8282 13.1557 42.7382 13.339 42.7017C13.5224 42.6652 13.7125 42.6838 13.8852 42.7554C14.0579 42.8269 14.2056 42.948 14.3095 43.1034C14.4135 43.2588 14.469 43.4415 14.4691 43.6285C14.4689 43.8793 14.3692 44.1198 14.1919 44.2972C14.0145 44.4746 13.774 44.5743 13.5231 44.5744Z" fill="#48485C"/>
<path d="M6.97273 30.8203H20.004C20.1119 30.8206 20.2188 30.7996 20.3186 30.7585C20.4183 30.7174 20.509 30.657 20.5854 30.5808C20.6618 30.5046 20.7224 30.4141 20.7637 30.3144C20.805 30.2147 20.8262 30.1079 20.8262 30V22.1011C20.8262 21.8835 20.7397 21.6749 20.5859 21.521C20.4321 21.3672 20.2234 21.2808 20.0059 21.2808H6.97461C6.75705 21.2808 6.5484 21.3672 6.39456 21.521C6.24072 21.6749 6.1543 21.8835 6.1543 22.1011V30C6.15417 30.2173 6.2403 30.4257 6.39376 30.5795C6.54722 30.7333 6.75546 30.8199 6.97273 30.8203V30.8203ZM7.79305 22.9219H19.1837V29.1797H7.79305V22.9219Z" fill="#FFDF30"/>
<path d="M47.5084 41.0424C46.9968 41.0423 46.4967 41.1939 46.0712 41.4781C45.6458 41.7623 45.3142 42.1662 45.1184 42.6389C44.9225 43.1115 44.8713 43.6316 44.9711 44.1334C45.0709 44.6352 45.3172 45.0961 45.679 45.4579C46.0407 45.8197 46.5017 46.066 47.0034 46.1658C47.5052 46.2656 48.0253 46.2143 48.498 46.0185C48.9707 45.8227 49.3746 45.4911 49.6588 45.0656C49.943 44.6402 50.0946 44.1401 50.0945 43.6285C50.0938 42.9428 49.8211 42.2855 49.3362 41.8006C48.8514 41.3158 48.1941 41.0431 47.5084 41.0424V41.0424ZM47.5084 44.5749C47.3213 44.575 47.1384 44.5196 46.9828 44.4157C46.8272 44.3118 46.7059 44.1642 46.6342 43.9914C46.5625 43.8185 46.5437 43.6283 46.5801 43.4448C46.6165 43.2613 46.7065 43.0927 46.8387 42.9604C46.971 42.828 47.1395 42.7378 47.3229 42.7013C47.5064 42.6647 47.6966 42.6833 47.8695 42.7548C48.0424 42.8263 48.1902 42.9475 48.2942 43.103C48.3982 43.2585 48.4538 43.4414 48.4539 43.6285C48.4538 43.8793 48.3541 44.1198 48.1769 44.2972C47.9996 44.4746 47.7592 44.5745 47.5084 44.5749Z" fill="#48485C"/>
<path d="M57.7005 31.3341C57.3976 31.0769 57.1541 30.7569 56.987 30.3963C56.8199 30.0358 56.7331 29.6432 56.7325 29.2458V28.1677C56.7281 26.7051 56.1451 25.3037 55.111 24.2694C54.0769 23.2351 52.6756 22.6519 51.213 22.6472H46.1238C46.3112 22.2596 46.4088 21.8347 46.4092 21.4041V18.4369C46.4084 17.6725 46.1043 16.9396 45.5638 16.3991C45.0233 15.8585 44.2904 15.5545 43.526 15.5536H36.0199V13.9313C36.019 13.0661 35.675 12.2366 35.0632 11.6248C34.4515 11.013 33.6221 10.6688 32.7569 10.6678H10.6019C9.73672 10.6688 8.90728 11.013 8.29556 11.6248C7.68383 12.2366 7.33979 13.0661 7.33893 13.9313V15.5536H6.06111C4.80971 15.5549 3.60989 16.0524 2.72488 16.9372C1.83987 17.8219 1.34195 19.0216 1.34033 20.273V40.6552C1.34095 41.6612 1.7408 42.6259 2.45208 43.3373C3.16335 44.0488 4.12791 44.4488 5.13393 44.4497H7.88549C8.08107 45.8055 8.75868 47.0454 9.79414 47.9422C10.8296 48.839 12.1535 49.3327 13.5234 49.3327C14.8932 49.3327 16.2172 48.839 17.2526 47.9422C18.2881 47.0454 18.9657 45.8055 19.1613 44.4497H41.8703C42.0659 45.8055 42.7435 47.0454 43.779 47.9422C44.8144 48.839 46.1384 49.3327 47.5082 49.3327C48.8781 49.3327 50.202 48.839 51.2375 47.9422C52.2729 47.0454 52.9505 45.8055 53.1461 44.4497H55.968C56.8331 44.4487 57.6624 44.1046 58.2742 43.4929C58.8859 42.8812 59.23 42.0518 59.231 41.1868V34.6585C59.2255 34.0276 59.0862 33.4051 58.8224 32.8321C58.5586 32.259 58.1762 31.7485 57.7005 31.3341V31.3341ZM57.2688 33.3821H46.9535C46.5234 33.3817 46.111 33.2107 45.8069 32.9066C45.5027 32.6026 45.3316 32.1903 45.3311 31.7602V28.5938C45.3316 28.1637 45.5027 27.7513 45.8068 27.4472C46.111 27.143 46.5233 26.9719 46.9535 26.9714H54.9002C55.027 27.3585 55.0917 27.7632 55.0919 28.1705V29.2486C55.0947 29.88 55.2328 30.5034 55.4969 31.0768C55.761 31.6503 56.1449 32.1605 56.6228 32.573C56.8854 32.8013 57.1043 33.0755 57.2688 33.3821V33.3821ZM53.8469 25.3289H46.9535C46.0883 25.3303 45.259 25.6748 44.6475 26.2869C44.0361 26.899 43.6924 27.7286 43.6919 28.5938V31.7621C43.6929 32.6271 44.037 33.4564 44.6487 34.0681C45.2604 34.6797 46.0898 35.0237 46.9549 35.0246H57.5903V38.3438H49.645C48.2744 37.7838 46.7388 37.7838 45.3681 38.3438H37.9221V24.2893H51.213C52.1911 24.2896 53.1326 24.6612 53.8474 25.3289H53.8469ZM41.8703 42.8082H37.9221V39.9844H43.1252C42.4539 40.7916 42.0195 41.769 41.8703 42.8082ZM11.3847 38.3438H2.98096V35.8969H22.8166V38.3438H15.6606C14.29 37.7838 12.7544 37.7838 11.3838 38.3438H11.3847ZM17.9074 39.9844H22.8166V42.8072H19.1603C19.0115 41.7686 18.5778 40.7915 17.9074 39.9844V39.9844ZM24.4572 28.3519C24.4577 28.0339 24.5843 27.729 24.8093 27.5043C25.0342 27.2795 25.3392 27.1531 25.6572 27.1528H30.3424C30.6604 27.1531 30.9653 27.2795 31.1903 27.5043C31.4152 27.729 31.5419 28.0339 31.5424 28.3519V42.8082H24.4572V28.3519ZM36.2814 38.3438H33.183V35.8969H36.2814V38.3438ZM33.183 39.9844H36.2814V42.8072H33.183V39.9844ZM8.97955 13.9313C8.98005 13.5011 9.15112 13.0887 9.45524 12.7845C9.75937 12.4803 10.1717 12.3091 10.6019 12.3085H32.7569C33.1871 12.309 33.5995 12.4801 33.9037 12.7844C34.2078 13.0886 34.3789 13.5011 34.3792 13.9313V15.5536H8.97955V13.9313ZM6.06111 17.1943H43.526C43.8557 17.1943 44.1719 17.3251 44.4051 17.5581C44.6384 17.7911 44.7696 18.1072 44.77 18.4369V21.4055C44.7698 21.735 44.6388 22.051 44.4058 22.2841C44.1728 22.5172 43.8569 22.6483 43.5274 22.6486H37.1055C36.8879 22.6486 36.6793 22.7351 36.5254 22.8889C36.3716 23.0427 36.2852 23.2514 36.2852 23.4689V34.2563H33.1867V28.35C33.1857 27.597 32.8861 26.8752 32.3536 26.3428C31.8211 25.8105 31.0991 25.5111 30.3461 25.5103H25.6572C24.9042 25.5111 24.1823 25.8105 23.6497 26.3428C23.1172 26.8752 22.8176 27.597 22.8166 28.35V34.2563H2.98096V20.273C2.98207 19.4566 3.30699 18.6739 3.88443 18.0967C4.46187 17.5196 5.24468 17.195 6.06111 17.1943V17.1943ZM2.98096 40.6552V39.9844H9.13939C8.46841 40.7916 8.03436 41.7691 7.88549 42.8082H5.13393C4.56319 42.8073 4.01608 42.5802 3.61251 42.1766C3.20893 41.773 2.98182 41.2259 2.98096 40.6552V40.6552ZM13.5231 47.6916C12.7196 47.6915 11.934 47.4531 11.2659 47.0066C10.5978 46.5601 10.0771 45.9255 9.76964 45.183C9.46218 44.4406 9.38179 43.6236 9.53862 42.8355C9.69545 42.0474 10.0825 41.3234 10.6507 40.7552C11.219 40.1871 11.943 39.8001 12.7311 39.6434C13.5193 39.4866 14.3362 39.5671 15.0786 39.8747C15.821 40.1822 16.4556 40.703 16.902 41.3712C17.3485 42.0393 17.5867 42.8249 17.5867 43.6285C17.5855 44.7058 17.157 45.7386 16.3951 46.5003C15.6333 47.2621 14.6005 47.6905 13.5231 47.6916V47.6916ZM47.5075 47.6916C46.4309 47.6904 45.3986 47.2623 44.637 46.5013C43.8754 45.7403 43.4465 44.7084 43.4444 43.6318V43.6257C43.445 42.8222 43.6837 42.0369 44.1305 41.3691C44.5773 40.7013 45.2121 40.1809 45.9546 39.8738C46.6971 39.5667 47.5139 39.4867 48.3019 39.6438C49.0899 39.8009 49.8136 40.1881 50.3816 40.7564C50.9495 41.3248 51.3362 42.0487 51.4928 42.8368C51.6493 43.6249 51.5687 44.4417 51.2611 45.184C50.9535 45.9263 50.4327 46.5607 49.7646 47.007C49.0965 47.4534 48.311 47.6916 47.5075 47.6916V47.6916ZM55.9671 42.8082H53.1452C52.9961 41.7694 52.5621 40.7923 51.8913 39.9853H57.5903V41.1858C57.5898 41.6159 57.4188 42.0283 57.1146 42.3324C56.8105 42.6366 56.3981 42.8077 55.968 42.8082H55.9671Z" fill="#48485C"/>
</svg>
