<svg width="61" height="60" viewBox="0 0 61 60" fill="none" xmlns="http://www.w3.org/2000/svg">
<path d="M41.8021 14.401L40.6157 5.47083C40.5993 5.34747 40.555 5.22945 40.4862 5.12574C40.4174 5.02203 40.3259 4.93534 40.2187 4.87224C37.1099 3.25092 33.6488 2.42263 30.1429 2.46099C26.637 2.42263 23.1759 3.25092 20.0671 4.87224C19.9598 4.93528 19.8683 5.02196 19.7995 5.12568C19.7307 5.22941 19.6864 5.34745 19.6701 5.47083L18.4832 14.401C18.0223 17.9093 18.7936 21.4687 20.6654 24.4715C22.5371 27.4744 25.3932 29.7343 28.746 30.8654L29.8818 31.2465C30.0512 31.3033 30.2346 31.3033 30.404 31.2465L31.5393 30.8654C34.8922 29.7344 37.7484 27.4746 39.6202 24.4717C41.492 21.4688 42.2632 17.9093 41.8021 14.401V14.401ZM30.1429 29.6035L29.2687 29.3096C26.2768 28.3002 23.7282 26.2834 22.0581 23.6037C20.388 20.9241 19.7 17.7477 20.1116 14.6171L21.2427 6.10552C24.0249 4.7861 27.0656 4.10163 30.1448 4.10163C33.2239 4.10163 36.2646 4.7861 39.0468 6.10552L40.1741 14.6171C40.5857 17.7477 39.8976 20.924 38.2276 23.6037C36.5575 26.2833 34.0089 28.3001 31.0171 29.3096L30.1429 29.6035Z" fill="#FFDF30"/>
<path d="M7.65178 28.382C7.65896 28.8539 7.76636 29.3189 7.96685 29.7461C8.16735 30.1734 8.45637 30.5532 8.81475 30.8603L17.3146 38.1259C17.3962 38.198 17.4913 38.2531 17.5944 38.2881C17.6975 38.323 17.8065 38.3371 17.9151 38.3295C18.0237 38.3219 18.1297 38.2928 18.2269 38.2438C18.3241 38.1949 18.4106 38.127 18.4814 38.0443C18.5521 37.9615 18.6057 37.8655 18.6389 37.7619C18.6722 37.6582 18.6845 37.549 18.6751 37.4405C18.6657 37.3321 18.6348 37.2266 18.5843 37.1302C18.5337 37.0337 18.4644 36.9484 18.3805 36.879L9.88115 29.6134C9.70885 29.4691 9.56687 29.2921 9.46342 29.0926C9.35996 28.8931 9.29709 28.675 9.27844 28.4511C9.25978 28.2271 9.28571 28.0017 9.35473 27.7878C9.42375 27.5739 9.53449 27.3758 9.68055 27.205C9.8266 27.0342 10.0051 26.8941 10.2056 26.7927C10.4062 26.6913 10.6249 26.6306 10.849 26.6143C11.0731 26.5979 11.2983 26.6262 11.5115 26.6974C11.7246 26.7686 11.9215 26.8814 12.0908 27.0292L20.5902 34.2948C20.7219 34.4076 20.8861 34.4756 21.059 34.4889C22.1531 34.6535 23.1951 35.0657 24.1058 35.6941C25.0164 36.3226 25.7715 37.1506 26.3137 38.1151C26.9838 39.2557 27.3339 40.5559 27.3271 41.8787V56.7189C27.3271 56.9364 27.4135 57.1451 27.5674 57.2989C27.7212 57.4527 27.9298 57.5392 28.1474 57.5392C28.365 57.5392 28.5736 57.4527 28.7275 57.2989C28.8813 57.1451 28.9677 56.9364 28.9677 56.7189V41.8843C28.9684 39.7447 28.2184 37.6727 26.8486 36.0292C25.4787 34.3857 23.5757 33.2747 21.471 32.8899L13.1577 25.7814C12.6283 25.3281 11.9701 25.052 11.2757 24.9921C10.5813 24.9321 9.8856 25.0913 9.28631 25.4471V15.6446C9.29155 15.2026 9.20901 14.764 9.04348 14.3541C8.87795 13.9442 8.63272 13.5712 8.322 13.2568C8.01128 12.9424 7.64125 12.6928 7.23336 12.5224C6.82546 12.352 6.38781 12.2643 5.94576 12.2643C5.50371 12.2643 5.06606 12.352 4.65817 12.5224C4.25027 12.6928 3.88024 12.9424 3.56952 13.2568C3.2588 13.5712 3.01358 13.9442 2.84805 14.3541C2.68252 14.764 2.59998 15.2026 2.60521 15.6446V32.8215C2.60705 33.9128 2.96539 34.9737 3.62568 35.8426L15.6037 51.5457V56.7189C15.6037 56.9364 15.6901 57.1451 15.8439 57.2989C15.9978 57.4527 16.2064 57.5392 16.424 57.5392C16.6415 57.5392 16.8502 57.4527 17.004 57.2989C17.1579 57.1451 17.2443 56.9364 17.2443 56.7189V51.2682C17.2443 51.0883 17.1852 50.9134 17.076 50.7704L4.93022 34.8474C4.48743 34.2651 4.24711 33.554 4.24584 32.8224V15.6456C4.24209 15.42 4.28329 15.1959 4.36704 14.9863C4.45079 14.7768 4.57541 14.586 4.73363 14.4252C4.89185 14.2643 5.08052 14.1365 5.28863 14.0493C5.49673 13.9621 5.72012 13.9172 5.94576 13.9172C6.17141 13.9172 6.39479 13.9621 6.6029 14.0493C6.81101 14.1365 6.99967 14.2643 7.15789 14.4252C7.31612 14.586 7.44073 14.7768 7.52448 14.9863C7.60823 15.1959 7.64943 15.42 7.64568 15.6456L7.65178 28.382Z" fill="#48485C"/>
<path d="M52.643 15.6455C52.6392 15.4199 52.6804 15.1958 52.7642 14.9862C52.8479 14.7767 52.9725 14.586 53.1307 14.4251C53.289 14.2642 53.4776 14.1364 53.6857 14.0492C53.8938 13.962 54.1172 13.9171 54.3429 13.9171C54.5685 13.9171 54.7919 13.962 55 14.0492C55.2081 14.1364 55.3968 14.2642 55.555 14.4251C55.7132 14.586 55.8379 14.7767 55.9216 14.9862C56.0053 15.1958 56.0465 15.4199 56.0428 15.6455V32.8224C56.0413 33.5539 55.801 34.2649 55.3584 34.8474L43.2094 50.7703C43.1005 50.9135 43.0415 51.0883 43.0416 51.2681V56.7188C43.0416 56.9363 43.128 57.145 43.2818 57.2988C43.4357 57.4527 43.6443 57.5391 43.8619 57.5391C44.0794 57.5391 44.2881 57.4527 44.4419 57.2988C44.5958 57.145 44.6822 56.9363 44.6822 56.7188V51.5452L56.6601 35.842C57.3202 34.9734 57.6786 33.9129 57.6806 32.8219V15.6455C57.6859 15.2035 57.6033 14.7648 57.4378 14.3549C57.2723 13.945 57.027 13.5721 56.7163 13.2577C56.4056 12.9432 56.0356 12.6936 55.6277 12.5232C55.2198 12.3529 54.7821 12.2651 54.3401 12.2651C53.898 12.2651 53.4604 12.3529 53.0525 12.5232C52.6446 12.6936 52.2745 12.9432 51.9638 13.2577C51.6531 13.5721 51.4079 13.945 51.2424 14.3549C51.0768 14.7648 50.9943 15.2035 50.9995 15.6455V25.448C50.4002 25.0921 49.7045 24.933 49.0101 24.9929C48.3157 25.0529 47.6575 25.3289 47.1281 25.7822L38.8148 32.8899C36.7109 33.2745 34.8085 34.3847 33.4388 36.0273C32.069 37.6699 31.3186 39.7408 31.3181 41.8796V56.7188C31.3181 56.9363 31.4045 57.145 31.5584 57.2988C31.7122 57.4527 31.9209 57.5391 32.1384 57.5391C32.356 57.5391 32.5646 57.4527 32.7185 57.2988C32.8723 57.145 32.9587 56.9363 32.9587 56.7188V41.8749C32.9526 40.5536 33.3027 39.2551 33.9722 38.116C34.5113 37.1491 35.2657 36.3191 36.1768 35.6903C37.088 35.0615 38.1316 34.6507 39.2269 34.4897C39.3998 34.4764 39.5639 34.4085 39.6956 34.2956L48.195 27.03C48.3643 26.8822 48.5612 26.7695 48.7744 26.6982C48.9875 26.627 49.2127 26.5988 49.4368 26.6151C49.661 26.6315 49.8796 26.6921 50.0802 26.7935C50.2808 26.8949 50.4592 27.0351 50.6053 27.2059C50.7513 27.3767 50.8621 27.5748 50.9311 27.7886C51.0001 28.0025 51.026 28.2279 51.0074 28.4519C50.9887 28.6759 50.9259 28.8939 50.8224 29.0934C50.719 29.2929 50.577 29.4699 50.4047 29.6142L41.9053 36.8799C41.744 37.0224 41.6452 37.2226 41.6302 37.4373C41.6152 37.652 41.6852 37.864 41.825 38.0276C41.9649 38.1911 42.1634 38.2932 42.3778 38.3118C42.5922 38.3303 42.8054 38.2639 42.9712 38.1267L51.4711 30.8611C51.8296 30.5541 52.1188 30.1744 52.3195 29.7471C52.5201 29.3198 52.6277 28.8548 52.635 28.3828L52.643 15.6455Z" fill="#48485C"/>
<path d="M38.3887 14.8547L37.4512 7.80751C37.4312 7.66138 37.3723 7.52332 37.2806 7.40784C37.1889 7.29236 37.0677 7.20373 36.9299 7.15126C32.5565 5.4919 27.7269 5.4919 23.3535 7.15126C23.2157 7.20377 23.0946 7.29242 23.0029 7.40789C22.9111 7.52336 22.8522 7.6614 22.8323 7.80751L21.8948 14.8542C21.5388 17.5774 22.1411 20.3397 23.5984 22.6676C25.0556 24.9954 27.2772 26.744 29.8823 27.6136C30.0496 27.6692 30.2305 27.6692 30.3979 27.6136L30.4448 27.5991C33.0399 26.7234 35.2505 24.974 36.6993 22.6497C38.1481 20.3254 38.7452 17.5703 38.3887 14.8547V14.8547ZM30.1429 25.9688C27.9635 25.1773 26.1196 23.6657 24.916 21.684C23.7124 19.7023 23.2212 17.3691 23.5237 15.0703L24.3941 8.51673C28.1171 7.22203 32.1682 7.22203 35.8912 8.51673L36.7621 15.0703C37.0633 17.3689 36.5715 19.7015 35.3681 21.683C34.1646 23.6644 32.3215 25.1762 30.1429 25.9688V25.9688Z" fill="#FFDF30"/>
<path d="M32.7772 14.2903L29.5363 17.5313L27.5085 15.5025C27.3546 15.3487 27.146 15.2623 26.9284 15.2623C26.7108 15.2623 26.5022 15.3487 26.3483 15.5025C26.1945 15.6564 26.108 15.865 26.108 16.0826C26.108 16.3002 26.1945 16.5088 26.3483 16.6627L28.9564 19.2708C29.1104 19.4244 29.319 19.5107 29.5365 19.5107C29.754 19.5107 29.9626 19.4244 30.1166 19.2708L33.9397 15.45C34.018 15.3743 34.0805 15.2838 34.1235 15.1837C34.1665 15.0836 34.1891 14.976 34.19 14.8671C34.1909 14.7581 34.1701 14.6501 34.1289 14.5493C34.0876 14.4485 34.0267 14.3569 33.9496 14.2799C33.8726 14.2029 33.781 14.142 33.6802 14.1008C33.5794 14.0596 33.4713 14.0389 33.3624 14.0398C33.2535 14.0408 33.1459 14.0634 33.0458 14.1065C32.9457 14.1495 32.8552 14.212 32.7796 14.2903H32.7772Z" fill="#FFDF30"/>
</svg>
