<svg width="61" height="60" viewBox="0 0 61 60" fill="none" xmlns="http://www.w3.org/2000/svg">
<path d="M45.9956 2.15625H14.6831C14.355 2.15625 14.1206 2.34375 14.1206 2.39062L5.63623 10.8281C5.49561 10.9688 5.40186 11.1562 5.40186 11.3906V57C5.40186 57.4688 5.77686 57.7969 6.19873 57.8438H45.9956C46.4644 57.8438 46.7925 57.4687 46.8394 57.0469V2.95313C46.8394 2.48438 46.4644 2.15625 45.9956 2.15625V2.15625ZM13.8394 4.92188V10.5938H8.21436L13.8394 4.92188ZM45.1987 56.2031H7.04248V12.2344H14.6831C15.1519 12.2344 15.48 11.8594 15.5269 11.4375V3.79688H45.1987V56.2031Z" fill="#48485C"/>
<path d="M20.1206 12.2344H32.1206C32.5894 12.2344 32.9644 11.8594 32.9644 11.3906C32.9644 10.9219 32.5894 10.5938 32.1206 10.5938H20.1206C19.6519 10.5938 19.2769 10.9687 19.2769 11.4375C19.2769 11.9062 19.6519 12.2344 20.1206 12.2344Z" fill="#48485C"/>
<path d="M38.73 27.0469H13.5112C13.0425 27.0469 12.6675 27.4219 12.6675 27.8906C12.6675 28.3594 13.0425 28.7344 13.5112 28.7344H38.73C39.1987 28.7344 39.5737 28.3594 39.5737 27.8906C39.5737 27.4219 39.1519 27.0469 38.73 27.0469Z" fill="#48485C"/>
<path d="M38.73 32.6719H13.5112C13.0425 32.6719 12.6675 33.0469 12.6675 33.5156C12.6675 33.9844 13.0425 34.3594 13.5112 34.3594H38.73C39.1987 34.3594 39.5737 33.9844 39.5737 33.5156C39.5737 33.0469 39.1519 32.6719 38.73 32.6719Z" fill="#48485C"/>
<path d="M38.73 21.5625H13.5112C13.0425 21.5625 12.6675 21.9375 12.6675 22.4062C12.6675 22.875 13.0425 23.25 13.5112 23.25H38.73C39.1987 23.25 39.5737 22.875 39.5737 22.4062C39.5737 21.9375 39.1519 21.5625 38.73 21.5625Z" fill="#48485C"/>
<path d="M12.6675 16.9219C12.6675 17.3906 13.0425 17.7188 13.4644 17.7656H38.6831C39.1519 17.7656 39.5269 17.3906 39.5269 16.9219C39.5269 16.4531 39.1519 16.0781 38.6831 16.0781H13.5112C13.0425 16.0781 12.6675 16.4531 12.6675 16.9219V16.9219Z" fill="#48485C"/>
<path d="M39.4332 39.7968C39.2457 39.3749 38.777 38.8593 37.6051 38.9999C34.2301 39.3281 32.0738 42.6093 32.1676 45.4687C32.1676 45.7968 32.2145 46.1718 32.3082 46.4999C31.7457 47.0156 31.1832 47.5312 30.5738 47.9999C30.2457 48.2812 30.1988 48.7968 30.4801 49.1718C30.7613 49.4999 31.277 49.5468 31.6051 49.2656C32.0738 48.8437 32.5426 48.4687 33.0113 48.0468C33.7613 48.9374 34.8395 49.4531 35.9645 49.4531C36.4332 49.4531 36.8082 49.1249 36.8082 48.6562C36.8082 48.1874 36.4801 47.8124 36.0113 47.8124C35.3082 47.8593 34.652 47.5312 34.2301 46.9687C38.2145 43.3593 39.9488 40.9687 39.4332 39.7968V39.7968ZM33.8082 45.0937C33.902 43.0781 35.4488 40.8749 37.7457 40.6406H37.7926C37.3707 41.4843 35.777 43.2187 33.8082 45.0937Z" fill="#FFDF30"/>
<path d="M19.5112 43.3125H13.5112C13.0425 43.3125 12.6675 43.6875 12.6675 44.1562C12.6675 44.625 13.0425 45 13.5112 45H19.5112C19.98 45 20.355 44.625 20.355 44.1562C20.355 43.6875 19.9331 43.3125 19.5112 43.3125Z" fill="#48485C"/>
<path d="M56.0269 17.4844L55.1362 12.9844C55.0425 12.6094 54.7144 12.3281 54.3394 12.3281H51.9956C51.6206 12.3281 51.2925 12.6094 51.1987 12.9844L50.2612 17.4844V17.6719V41.2031C50.2612 41.3437 50.3081 41.4844 50.3081 41.4844L52.3706 47.1562C52.5112 47.5781 52.98 47.8125 53.4019 47.625C53.6362 47.5312 53.8237 47.3437 53.8706 47.1562L55.9331 41.4844C55.9331 41.4844 55.98 41.3437 55.98 41.2031C55.98 41.2031 55.98 18.7031 55.98 17.7187C56.0269 17.625 56.0269 17.5312 56.0269 17.4844V17.4844ZM54.3862 31.1719H51.855V18.5156H54.3862V31.1719ZM51.855 32.8125H54.3862V40.3594H51.855V32.8125ZM53.6831 13.9687L54.2456 16.8281H52.0894L52.6987 13.9687H53.6831ZM53.1206 44.4844L52.23 42H54.0581L53.1206 44.4844Z" fill="#FFDF30"/>
</svg>
