<svg width="60" height="60" viewBox="0 0 60 60" fill="none" xmlns="http://www.w3.org/2000/svg">
<path d="M53.8205 22.5571H45.7294C45.5118 22.5573 45.3033 22.6437 45.1495 22.7975C44.9956 22.9513 44.9092 23.1599 44.9091 23.3774V56.7187C44.9092 56.9362 44.9956 57.1448 45.1495 57.2986C45.3033 57.4524 45.5118 57.5389 45.7294 57.539H53.8205C54.038 57.5389 54.2466 57.4524 54.4004 57.2986C54.5542 57.1448 54.6407 56.9362 54.6408 56.7187V23.3774C54.6407 23.1599 54.5542 22.9513 54.4004 22.7975C54.2466 22.6437 54.038 22.5573 53.8205 22.5571V22.5571ZM53.0002 55.8984H46.5497V24.1978H53.0002V55.8984Z" fill="#48485C"/>
<path d="M14.2707 33.0642H6.17957C5.96204 33.0643 5.75347 33.1508 5.59965 33.3046C5.44584 33.4584 5.35938 33.667 5.35925 33.8845V56.7187C5.35938 56.9363 5.44584 57.1448 5.59965 57.2987C5.75347 57.4525 5.96204 57.5389 6.17957 57.5391H14.2707C14.4882 57.5389 14.6968 57.4525 14.8506 57.2987C15.0044 57.1448 15.0908 56.9363 15.091 56.7187V33.8845C15.0908 33.667 15.0044 33.4584 14.8506 33.3046C14.6968 33.1508 14.4882 33.0643 14.2707 33.0642V33.0642ZM13.4503 55.8984H6.99988V34.7048H13.4503V55.8984Z" fill="#48485C"/>
<path d="M27.4538 29.5618H19.3632C19.1456 29.5618 18.937 29.6482 18.7831 29.802C18.6293 29.9559 18.5428 30.1645 18.5428 30.3821V56.7188C18.5428 56.9364 18.6293 57.145 18.7831 57.2988C18.937 57.4527 19.1456 57.5391 19.3632 57.5391H27.4538C27.6713 57.539 27.8799 57.4525 28.0337 57.2987C28.1875 57.1449 28.274 56.9363 28.2741 56.7188V30.3821C28.274 30.1646 28.1875 29.956 28.0337 29.8022C27.8799 29.6484 27.6713 29.5619 27.4538 29.5618V29.5618ZM26.6335 55.8985H20.1835V31.2024H26.6335V55.8985Z" fill="#48485C"/>
<path d="M40.6369 26.0597H32.5463C32.3287 26.0597 32.1201 26.1461 31.9662 26.3C31.8124 26.4538 31.726 26.6624 31.726 26.88V56.7188C31.7261 56.9363 31.8125 57.1449 31.9664 57.2987C32.1202 57.4525 32.3287 57.5389 32.5463 57.5391H40.6369C40.8545 57.5391 41.0631 57.4526 41.2169 57.2988C41.3708 57.145 41.4572 56.9363 41.4572 56.7188V26.88C41.4573 26.7723 41.4361 26.6656 41.3949 26.566C41.3537 26.4665 41.2933 26.376 41.2171 26.2998C41.1409 26.2236 41.0504 26.1632 40.9509 26.122C40.8513 26.0808 40.7446 26.0596 40.6369 26.0597V26.0597ZM39.8166 55.8984H33.3666V27.7003H39.8166V55.8984Z" fill="#48485C"/>
<path d="M56.7187 2.46094H46.5469C46.3847 2.46102 46.2262 2.50917 46.0913 2.59932C45.9565 2.68946 45.8514 2.81754 45.7894 2.96739C45.7273 3.11723 45.7111 3.2821 45.7427 3.44117C45.7743 3.60024 45.8524 3.74637 45.967 3.86109L48.4448 6.33891C30.0867 24.1842 3.48561 26.5092 3.21561 26.5312C3.00607 26.5478 2.8109 26.6443 2.67037 26.8006C2.52984 26.9569 2.45467 27.1612 2.46039 27.3713C2.4661 27.5814 2.55225 27.7813 2.70107 27.9298C2.84989 28.0782 3.05001 28.1639 3.26014 28.1691C3.28358 28.1691 3.47483 28.1733 3.81748 28.1733C8.18061 28.1733 36.9933 27.5442 53.6508 11.5458L56.1389 14.0334C56.2536 14.1481 56.3998 14.2262 56.5589 14.2578C56.718 14.2894 56.883 14.2731 57.0328 14.211C57.1827 14.1489 57.3108 14.0437 57.4009 13.9088C57.491 13.7739 57.5391 13.6153 57.539 13.4531V3.28125C57.5389 3.06373 57.4525 2.85515 57.2986 2.70134C57.1448 2.54753 56.9363 2.46106 56.7187 2.46094V2.46094ZM55.8984 11.4727L54.2367 9.81094C54.0828 9.6572 53.8742 9.57084 53.6566 9.57084C53.4391 9.57084 53.2304 9.6572 53.0765 9.81094C42.8578 20.0297 27.5025 24.0141 16.553 25.5609C26.303 22.8539 39.6501 17.4623 50.189 6.92391C50.3428 6.77 50.4291 6.56136 50.4291 6.34383C50.4291 6.12629 50.3428 5.91765 50.189 5.76375L48.5273 4.10156H55.8984V11.4727Z" fill="#FFDF30"/>
</svg>
