<svg width="61" height="60" viewBox="0 0 61 60" fill="none" xmlns="http://www.w3.org/2000/svg">
<path d="M57.5757 23.0859H47.8726L32.6063 11.5894C33.1137 11.2529 33.5132 10.7771 33.7568 10.2192C34.0005 9.66126 34.0779 9.04485 33.9798 8.44398C33.8817 7.84312 33.6122 7.28334 33.2038 6.83186C32.7954 6.38037 32.2653 6.05637 31.6772 5.89875V3.28125C31.6772 3.06369 31.5908 2.85504 31.437 2.7012C31.2831 2.54736 31.0745 2.46094 30.8569 2.46094C30.6394 2.46094 30.4307 2.54736 30.2769 2.7012C30.123 2.85504 30.0366 3.06369 30.0366 3.28125V6.61172C30.0366 6.82928 30.123 7.03793 30.2769 7.19177C30.4307 7.34561 30.6394 7.43203 30.8569 7.43203C31.261 7.43203 31.6485 7.59254 31.9342 7.87824C32.2199 8.16394 32.3804 8.55143 32.3804 8.95547C32.3804 9.35951 32.2199 9.747 31.9342 10.0327C31.6485 10.3184 31.261 10.4789 30.8569 10.4789V10.4789C30.4532 10.4784 30.0661 10.3178 29.7806 10.0323C29.4951 9.74679 29.3345 9.3597 29.334 8.95594C29.334 8.73838 29.2475 8.52973 29.0937 8.37589C28.9399 8.22205 28.7312 8.13563 28.5137 8.13563C28.2961 8.13563 28.0874 8.22205 27.9336 8.37589C27.7798 8.52973 27.6933 8.73838 27.6933 8.95594C27.6937 9.47758 27.823 9.99104 28.0698 10.4506C28.3167 10.9101 28.6733 11.3015 29.108 11.5898L13.8413 23.0859H4.13818C3.92062 23.0859 3.71197 23.1724 3.55814 23.3262C3.4043 23.48 3.31787 23.6887 3.31787 23.9062V56.7188C3.31787 56.9363 3.4043 57.145 3.55814 57.2988C3.71197 57.4526 3.92062 57.5391 4.13818 57.5391H57.5757C57.7932 57.5391 58.0019 57.4526 58.1557 57.2988C58.3096 57.145 58.396 56.9363 58.396 56.7188V23.9062C58.396 23.6887 58.3096 23.48 58.1557 23.3262C58.0019 23.1724 57.7932 23.0859 57.5757 23.0859V23.0859ZM30.8569 12.3281L45.1449 23.0859H16.569L30.8569 12.3281ZM56.7554 55.9008H4.9585V24.7266H56.7554V55.9008Z" fill="#48485C"/>
<path d="M7.41943 54.2578H54.2944C54.512 54.2578 54.7206 54.1714 54.8745 54.0175C55.0283 53.8637 55.1147 53.6551 55.1147 53.4375V27.1875C55.1147 26.9699 55.0283 26.7613 54.8745 26.6075C54.7206 26.4536 54.512 26.3672 54.2944 26.3672H7.41943C7.20187 26.3672 6.99322 26.4536 6.83938 26.6075C6.68555 26.7613 6.59912 26.9699 6.59912 27.1875V53.4375C6.59912 53.6551 6.68555 53.8637 6.83938 54.0175C6.99322 54.1714 7.20187 54.2578 7.41943 54.2578V54.2578ZM8.23975 28.0078H53.4741V52.6172H8.23975V28.0078Z" fill="#48485C"/>
<path d="M14.116 30.9619C14.0082 30.9619 13.9015 30.983 13.802 31.0242C13.7024 31.0654 13.612 31.1259 13.5358 31.202C13.4596 31.2782 13.3992 31.3687 13.358 31.4682C13.3168 31.5678 13.2956 31.6745 13.2957 31.7822V48.8447C13.2957 49.0623 13.3821 49.2709 13.5359 49.4248C13.6898 49.5786 13.8984 49.665 14.116 49.665C14.3335 49.665 14.5422 49.5786 14.696 49.4248C14.8499 49.2709 14.9363 49.0623 14.9363 48.8447V31.7813C14.9362 31.6736 14.915 31.567 14.8737 31.4676C14.8324 31.3681 14.772 31.2778 14.6958 31.2017C14.6196 31.1256 14.5292 31.0653 14.4297 31.0241C14.3303 30.983 14.2236 30.9619 14.116 30.9619Z" fill="#FFDF30"/>
<path d="M47.5979 30.9619C47.4902 30.9619 47.3835 30.983 47.2839 31.0242C47.1844 31.0654 47.0939 31.1259 47.0177 31.202C46.9415 31.2782 46.8811 31.3687 46.8399 31.4682C46.7987 31.5678 46.7775 31.6745 46.7776 31.7822V48.8447C46.7776 49.0623 46.864 49.2709 47.0179 49.4248C47.1717 49.5786 47.3803 49.665 47.5979 49.665C47.8155 49.665 48.0241 49.5786 48.178 49.4248C48.3318 49.2709 48.4182 49.0623 48.4182 48.8447V31.7813C48.4182 31.6736 48.3969 31.567 48.3556 31.4676C48.3144 31.3681 48.2539 31.2778 48.1778 31.2017C48.1016 31.1256 48.0112 31.0653 47.9117 31.0241C47.8122 30.983 47.7056 30.9619 47.5979 30.9619V30.9619Z" fill="#FFDF30"/>
<path d="M40.9019 30.9619C40.7941 30.9619 40.6874 30.983 40.5879 31.0242C40.4883 31.0654 40.3979 31.1259 40.3217 31.202C40.2455 31.2782 40.1851 31.3687 40.1439 31.4682C40.1027 31.5678 40.0815 31.6745 40.0815 31.7822V48.8447C40.0815 49.0623 40.168 49.2709 40.3218 49.4248C40.4756 49.5786 40.6843 49.665 40.9019 49.665C41.1194 49.665 41.3281 49.5786 41.4819 49.4248C41.6357 49.2709 41.7222 49.0623 41.7222 48.8447V31.7813C41.7219 31.5639 41.6354 31.3555 41.4816 31.2018C41.3278 31.0482 41.1193 30.9619 40.9019 30.9619V30.9619Z" fill="#FFDF30"/>
<path d="M34.2053 30.9619C34.0976 30.9619 33.9909 30.983 33.8913 31.0242C33.7918 31.0654 33.7013 31.1259 33.6251 31.202C33.549 31.2782 33.4885 31.3687 33.4473 31.4682C33.4061 31.5678 33.3849 31.6745 33.385 31.7822V48.8447C33.385 49.0623 33.4714 49.2709 33.6253 49.4248C33.7791 49.5786 33.9878 49.665 34.2053 49.665C34.4229 49.665 34.6315 49.5786 34.7854 49.4248C34.9392 49.2709 35.0256 49.0623 35.0256 48.8447V31.7813C35.0254 31.5639 34.9389 31.3555 34.785 31.2018C34.6312 31.0482 34.4227 30.9619 34.2053 30.9619V30.9619Z" fill="#FFDF30"/>
<path d="M27.5085 30.9619C27.291 30.9619 27.0823 31.0483 26.9285 31.2022C26.7747 31.356 26.6882 31.5647 26.6882 31.7822V48.8447C26.6882 49.0623 26.7747 49.2709 26.9285 49.4248C27.0823 49.5786 27.291 49.665 27.5085 49.665C27.7261 49.665 27.9348 49.5786 28.0886 49.4248C28.2424 49.2709 28.3289 49.0623 28.3289 48.8447V31.7813C28.3288 31.6736 28.3075 31.567 28.2663 31.4676C28.225 31.3681 28.1646 31.2778 28.0884 31.2017C28.0122 31.1256 27.9218 31.0653 27.8223 31.0241C27.7228 30.983 27.6162 30.9619 27.5085 30.9619V30.9619Z" fill="#FFDF30"/>
<path d="M20.812 30.9619C20.7043 30.9619 20.5976 30.983 20.498 31.0242C20.3985 31.0654 20.308 31.1259 20.2318 31.202C20.1556 31.2782 20.0952 31.3687 20.054 31.4682C20.0128 31.5678 19.9916 31.6745 19.9917 31.7822V48.8447C19.9917 49.0623 20.0781 49.2709 20.232 49.4248C20.3858 49.5786 20.5945 49.665 20.812 49.665C21.0296 49.665 21.2382 49.5786 21.3921 49.4248C21.5459 49.2709 21.6323 49.0623 21.6323 48.8447V31.7813C21.6323 31.6736 21.611 31.567 21.5697 31.4676C21.5285 31.3681 21.468 31.2778 21.3919 31.2017C21.3157 31.1256 21.2253 31.0653 21.1258 31.0241C21.0263 30.983 20.9197 30.9619 20.812 30.9619Z" fill="#FFDF30"/>
</svg>
