<svg width="60" height="60" viewBox="0 0 60 60" fill="none" xmlns="http://www.w3.org/2000/svg">
<path d="M49.4531 32.8125H32.7093C32.4918 32.8126 32.2832 32.899 32.1294 33.0529C31.9756 33.2067 31.8891 33.4152 31.889 33.6328V37.0781C31.7278 37.2215 31.5606 37.3581 31.3875 37.4878C31.2618 37.3401 31.1343 37.1943 30.9984 37.0603C29.7149 35.7811 27.9777 35.0612 26.1656 35.0578C24.3955 35.0577 22.695 35.747 21.4246 36.9796C20.4119 36.0505 19.6629 34.8702 19.2533 33.5583C18.8438 32.2464 18.7884 30.8495 19.0926 29.5093C19.3969 28.169 20.0501 26.933 20.986 25.9266C21.9219 24.9201 23.1072 24.179 24.4218 23.7782L28.0378 26.6653L27.6253 27.1809C27.3485 27.5202 27.1418 27.911 27.0171 28.3307C26.8923 28.7504 26.8521 29.1907 26.8986 29.6261C26.9451 30.0615 27.0775 30.4833 27.2882 30.8672C27.4988 31.251 27.7834 31.5893 28.1257 31.8625C28.4679 32.1356 28.8609 32.3382 29.2819 32.4585C29.7029 32.5787 30.1436 32.6143 30.5784 32.5632C31.0133 32.512 31.4337 32.3751 31.8153 32.1605C32.1969 31.9458 32.5322 31.6575 32.8017 31.3125L43.0631 18.4551C43.3342 18.1151 43.5358 17.7249 43.6562 17.307C43.7765 16.8891 43.8134 16.4516 43.7647 16.0194C43.716 15.5872 43.5827 15.1688 43.3723 14.7882C43.1619 14.4075 42.8786 14.072 42.5385 13.8009C42.1985 13.5297 41.8084 13.3282 41.3905 13.2078C40.9725 13.0874 40.535 13.0505 40.1028 13.0992C39.6706 13.1479 39.2523 13.2813 38.8716 13.4917C38.491 13.7021 38.1555 13.9854 37.8843 14.3254L36.539 16.0129L25.896 7.52105C25.6602 7.33243 25.3894 7.19219 25.0993 7.10833C24.8092 7.02448 24.5054 6.99866 24.2053 7.03236C23.9051 7.06606 23.6146 7.15861 23.3503 7.30472C23.086 7.45083 22.8531 7.64763 22.665 7.88386L22.4545 8.1473L18.3801 4.89933C18.2739 4.81453 18.1483 4.75745 18.0146 4.73322C17.8809 4.709 17.7433 4.71839 17.6141 4.76055C17.4849 4.80271 17.3683 4.87632 17.2746 4.97476C17.1809 5.0732 17.1132 5.19337 17.0775 5.32448L15.315 11.7792C15.2728 11.9339 15.2769 12.0976 15.3269 12.25C15.3769 12.4024 15.4706 12.5368 15.5962 12.6365L17.602 14.234L17.0395 14.9418C16.7047 15.3592 16.5264 15.8804 16.5354 16.4154C16.5445 16.9504 16.7404 17.4653 17.0892 17.871C14.7262 19.4744 12.8306 21.6755 11.5954 24.2502C10.3602 26.8248 9.82974 29.6808 10.058 32.5273C10.2862 35.3737 11.2649 38.1088 12.8945 40.4537C14.5241 42.7987 16.7462 44.6697 19.3345 45.876V47.6718H13.9584C13.7409 47.6719 13.5323 47.7584 13.3785 47.9122C13.2247 48.066 13.1382 48.2746 13.1381 48.4921V51.2343H8.6062C8.38868 51.2345 8.1801 51.3209 8.02629 51.4747C7.87248 51.6285 7.78601 51.8371 7.78589 52.0546V55.6171C7.78589 55.8347 7.87231 56.0433 8.02615 56.1972C8.17999 56.351 8.38864 56.4375 8.6062 56.4375H43.7235C43.8313 56.4375 43.938 56.4163 44.0375 56.3751C44.1371 56.3339 44.2275 56.2735 44.3037 56.1973C44.3799 56.1211 44.4403 56.0307 44.4815 55.9311C44.5227 55.8316 44.5439 55.7249 44.5439 55.6171V52.0546C44.5439 51.8371 44.4574 51.6284 44.3036 51.4746C44.1498 51.3208 43.9411 51.2343 43.7235 51.2343H39.1917V48.4912C39.1917 48.2736 39.1052 48.065 38.9514 47.9112C38.7976 47.7573 38.5889 47.6709 38.3714 47.6709H33V45.8831C36.4824 44.241 39.2728 41.4213 40.8782 37.9218H49.4531C49.6706 37.9217 49.8792 37.8352 50.033 37.6814C50.1868 37.5276 50.2733 37.319 50.2734 37.1015V33.6328C50.2733 33.4152 50.1868 33.2067 50.033 33.0529C49.8792 32.899 49.6706 32.8126 49.4531 32.8125V32.8125ZM39.1682 15.3468C39.4474 15.0086 39.8484 14.7936 40.2846 14.7482C40.7209 14.7029 41.1575 14.8308 41.5003 15.1045C41.8431 15.3781 42.0646 15.7755 42.117 16.211C42.1694 16.6465 42.0486 17.0851 41.7806 17.4323L31.5187 30.291C31.2384 30.6314 30.8365 30.8493 30.3983 30.8985C29.9601 30.9477 29.52 30.8243 29.1712 30.5545C28.8256 30.2773 28.6038 29.8746 28.5543 29.4343C28.5047 28.9941 28.6315 28.5522 28.9068 28.2051L29.7834 27.1064C29.8012 27.0876 29.8185 27.0679 29.835 27.0473L37.2993 17.6896C37.3031 17.685 37.3078 17.6817 37.3115 17.677C37.3149 17.6723 37.318 17.6675 37.3209 17.6625L39.1682 15.3468ZM24.3885 8.66245C24.4743 8.65221 24.5613 8.65938 24.6443 8.68354C24.7272 8.7077 24.8045 8.74836 24.8714 8.80308L35.5162 17.2968L34.6528 18.375C34.649 18.3792 34.6448 18.382 34.6415 18.3862L29.0596 25.3828L25.1526 22.2656C25.1456 22.259 25.1376 22.2539 25.1301 22.2478L18.9731 17.3325L18.4185 16.8867C18.3513 16.834 18.2953 16.7685 18.2537 16.6938C18.2122 16.6192 18.186 16.537 18.1767 16.4521C18.1665 16.3658 18.1737 16.2784 18.1978 16.1949C18.222 16.1114 18.2626 16.0336 18.3173 15.966L19.3889 14.6221L19.3954 14.6156L19.4015 14.6067L23.9484 8.9062C24.0019 8.83835 24.0683 8.78184 24.1439 8.73999C24.2195 8.69814 24.3027 8.67178 24.3885 8.66245V8.66245ZM17.04 11.6901L18.3318 6.95855L21.4317 9.4298L18.6234 12.9515L17.04 11.6901ZM11.6437 31.2375C11.6507 28.7903 12.2736 26.3842 13.4551 24.2411C14.6365 22.098 16.3385 20.2868 18.404 18.9745L22.919 22.5796C21.4719 23.2131 20.2067 24.1992 19.2392 25.4479C18.2716 26.6965 17.6325 28.1678 17.3804 29.7273C17.1283 31.2867 17.2711 32.8844 17.7959 34.3743C18.3207 35.8643 19.2107 37.1989 20.3845 38.256C19.6997 39.3455 19.3347 40.6054 19.3312 41.8921V44.0484C17.008 42.8116 15.0651 40.9658 13.7108 38.709C12.3566 36.4522 11.642 33.8694 11.6437 31.2375V31.2375ZM42.9032 54.7968H9.42651V52.875H42.9032V54.7968ZM37.551 51.2343H14.7787V49.3125H20.1379H20.1515C20.1515 49.3125 20.1604 49.3125 20.1651 49.3125H32.1651H32.1787C32.1787 49.3125 32.1876 49.3125 32.1923 49.3125H37.5501L37.551 51.2343ZM20.9718 47.6718V41.8921C20.973 40.7071 21.3774 39.5577 22.1184 38.6329C22.2384 38.4885 22.3621 38.3517 22.4934 38.2209C22.9757 37.7379 23.5485 37.3548 24.179 37.0935C24.8096 36.8322 25.4855 36.698 26.1681 36.6984C26.8506 36.6987 27.5264 36.8338 28.1567 37.0958C28.787 37.3578 29.3593 37.7415 29.841 38.2251C30.0951 38.4764 30.3213 38.7544 30.5156 39.0543C31.0668 39.8981 31.3601 40.8843 31.3593 41.8921V47.6718H20.9718ZM33 44.0498V41.8935C32.9997 40.8426 32.7565 39.8059 32.2893 38.8645C32.6783 38.5793 33.0444 38.2641 33.3843 37.9218H39.0562C37.6944 40.5232 35.5851 42.6574 33 44.0498V44.0498ZM48.6328 36.2812H33.5296V34.4531H48.6328V36.2812Z" fill="#48485C"/>
<path d="M26.1651 39.0046C25.536 39.0044 24.9211 39.1906 24.398 39.5399C23.8748 39.8891 23.467 40.3857 23.2261 40.9667C22.9852 41.5478 22.922 42.1872 23.0446 42.8042C23.1671 43.4211 23.4699 43.9879 23.9145 44.4327C24.3592 44.8776 24.9258 45.1806 25.5427 45.3034C26.1596 45.4263 26.7991 45.3634 27.3803 45.1227C27.9614 44.8821 28.4581 44.4745 28.8076 43.9515C29.1571 43.4285 29.3436 42.8136 29.3436 42.1846C29.3428 41.3418 29.0077 40.5336 28.4118 39.9375C27.8159 39.3414 27.0079 39.0059 26.1651 39.0046V39.0046ZM26.1651 43.7235C25.8605 43.7238 25.5627 43.6338 25.3094 43.4648C25.056 43.2958 24.8585 43.0554 24.7418 42.7741C24.6251 42.4928 24.5944 42.1833 24.6537 41.8845C24.713 41.5858 24.8595 41.3114 25.0748 41.096C25.2901 40.8806 25.5644 40.7339 25.8631 40.6744C26.1618 40.615 26.4714 40.6454 26.7527 40.762C27.0341 40.8785 27.2746 41.0759 27.4437 41.3291C27.6129 41.5824 27.7031 41.8801 27.703 42.1846C27.7026 42.5925 27.5405 42.9836 27.2522 43.2721C26.9639 43.5606 26.5729 43.7229 26.1651 43.7235V43.7235Z" fill="#FFDF30"/>
</svg>
