<svg width="60" height="60" viewBox="0 0 60 60" fill="none" xmlns="http://www.w3.org/2000/svg">
<path d="M40.7372 39.751C40.8449 39.751 40.9516 39.7299 41.0512 39.6887C41.1507 39.6475 41.2412 39.587 41.3174 39.5109C41.3936 39.4347 41.454 39.3442 41.4952 39.2447C41.5364 39.1451 41.5576 39.0384 41.5575 38.9307V35.9644C41.5575 35.7469 41.4711 35.5382 41.3172 35.3844C41.1634 35.2305 40.9547 35.1441 40.7372 35.1441C40.5196 35.1441 40.311 35.2305 40.1571 35.3844C40.0033 35.5382 39.9169 35.7469 39.9169 35.9644V38.9325C39.9172 39.1498 40.0038 39.3581 40.1577 39.5115C40.3115 39.665 40.5199 39.7511 40.7372 39.751V39.751Z" fill="#FFDF30"/>
<path d="M40.7372 48.2082C40.6294 48.2081 40.5227 48.2293 40.4232 48.2705C40.3236 48.3117 40.2332 48.3721 40.157 48.4483C40.0808 48.5245 40.0204 48.615 39.9792 48.7145C39.938 48.8141 39.9168 48.9208 39.9169 49.0285V51.9971C39.9169 52.2147 40.0033 52.4233 40.1571 52.5771C40.311 52.731 40.5196 52.8174 40.7372 52.8174C40.9547 52.8174 41.1634 52.731 41.3172 52.5771C41.4711 52.4233 41.5575 52.2147 41.5575 51.9971V49.0285C41.5576 48.9208 41.5364 48.8141 41.4952 48.7145C41.454 48.615 41.3936 48.5245 41.3174 48.4483C41.2412 48.3721 41.1507 48.3117 41.0512 48.2705C40.9516 48.2293 40.8449 48.2081 40.7372 48.2082Z" fill="#FFDF30"/>
<path d="M57.0436 24.4097H52.141C52.3017 24.1188 52.4155 23.8043 52.478 23.4779H53.0241C53.6144 23.4771 54.1803 23.2423 54.5977 22.8249C55.0151 22.4075 55.2499 21.8416 55.2506 21.2513V19.0351C55.2506 18.8175 55.1642 18.6088 55.0104 18.455C54.8565 18.3012 54.6479 18.2147 54.4303 18.2147H52.5361V17.9747C52.5362 17.867 52.515 17.7603 52.4738 17.6607C52.4326 17.5612 52.3722 17.4707 52.296 17.3946C52.2198 17.3184 52.1293 17.2579 52.0298 17.2167C51.9302 17.1755 51.8235 17.1544 51.7158 17.1544H45.4889C45.3812 17.1544 45.2745 17.1755 45.1749 17.2167C45.0754 17.2579 44.9849 17.3184 44.9087 17.3946C44.8325 17.4707 44.7721 17.5612 44.7309 17.6607C44.6897 17.7603 44.6685 17.867 44.6686 17.9747V22.8797C44.6683 23.415 44.8042 23.9416 45.0638 24.4097H34.0655L33.4374 20.5791H40.5567C41.0849 20.5786 41.5914 20.3686 41.9649 19.9951C42.3384 19.6216 42.5484 19.1151 42.5489 18.5869V4.12927C42.5484 3.60106 42.3384 3.09463 41.9649 2.72113C41.5914 2.34763 41.0849 2.13758 40.5567 2.13708H19.4428C18.9147 2.13771 18.4083 2.3478 18.0348 2.72127C17.6614 3.09474 17.4513 3.6011 17.4506 4.12927V18.5874C17.4513 19.1156 17.6614 19.6219 18.0348 19.9954C18.4083 20.3689 18.9147 20.579 19.4428 20.5796H26.5627L25.9341 24.4097H14.5153V22.4227H15.1013C15.209 22.4228 15.3157 22.4016 15.4153 22.3604C15.5148 22.3192 15.6053 22.2588 15.6815 22.1826C15.7576 22.1064 15.8181 22.0159 15.8593 21.9164C15.9005 21.8168 15.9216 21.7101 15.9216 21.6024V17.9747C15.9216 17.867 15.9005 17.7603 15.8593 17.6607C15.8181 17.5612 15.7576 17.4707 15.6815 17.3946C15.6053 17.3184 15.5148 17.2579 15.4153 17.2167C15.3157 17.1755 15.209 17.1544 15.1013 17.1544H14.5153V14.3447C14.5153 14.1272 14.4289 13.9185 14.2751 13.7647C14.1212 13.6109 13.9126 13.5244 13.695 13.5244H7.38376C6.76841 13.5234 6.17212 13.7379 5.69845 14.1307C5.22479 14.5235 4.90367 15.0698 4.79088 15.6748C4.67808 16.2797 4.78072 16.905 5.08099 17.4421C5.38125 17.9793 5.86016 18.3943 6.43455 18.6151C6.25101 18.9789 6.1554 19.3808 6.1554 19.7883C6.1554 20.1959 6.25101 20.5977 6.43455 20.9616C6.10772 21.0868 5.80922 21.276 5.5566 21.5182C5.30398 21.7604 5.10234 22.0507 4.96354 22.372C4.82474 22.6932 4.75159 23.039 4.74838 23.389C4.74517 23.7389 4.81197 24.086 4.94486 24.4097H2.95642C2.84868 24.4097 2.74198 24.4309 2.64243 24.4721C2.54288 24.5133 2.45242 24.5737 2.37624 24.6499C2.30005 24.7261 2.23963 24.8165 2.19843 24.9161C2.15722 25.0156 2.13605 25.1223 2.13611 25.2301V57.0446C2.13605 57.1523 2.15722 57.259 2.19843 57.3586C2.23963 57.4581 2.30005 57.5486 2.37624 57.6248C2.45242 57.701 2.54288 57.7614 2.64243 57.8026C2.74198 57.8438 2.84868 57.865 2.95642 57.8649H7.01908C7.23664 57.8649 7.44529 57.7785 7.59913 57.6246C7.75296 57.4708 7.83939 57.2621 7.83939 57.0446V51.3329H35.9916V57.0446C35.9915 57.1523 36.0127 57.259 36.0539 57.3586C36.0951 57.4581 36.1555 57.5486 36.2317 57.6248C36.3079 57.701 36.3983 57.7614 36.4979 57.8026C36.5975 57.8438 36.7041 57.865 36.8119 57.8649H57.0436C57.1514 57.865 57.2581 57.8438 57.3576 57.8026C57.4572 57.7614 57.5476 57.701 57.6238 57.6248C57.7 57.5486 57.7604 57.4581 57.8016 57.3586C57.8428 57.259 57.864 57.1523 57.8639 57.0446V25.2301C57.864 25.1223 57.8428 25.0156 57.8016 24.9161C57.7604 24.8165 57.7 24.7261 57.6238 24.6499C57.5476 24.5737 57.4572 24.5133 57.3576 24.4721C57.2581 24.4309 57.1514 24.4097 57.0436 24.4097V24.4097ZM53.61 19.8554V21.2513C53.6099 21.4067 53.5481 21.5556 53.4383 21.6655C53.3284 21.7753 53.1794 21.8371 53.0241 21.8372H52.5361V19.8554H53.61ZM46.3092 22.8797V18.7951H50.8955V22.8797C50.8949 23.2854 50.7334 23.6743 50.4465 23.9611C50.1596 24.2479 49.7707 24.4092 49.365 24.4097H47.8397C47.434 24.4092 47.0451 24.2479 46.7582 23.9611C46.4713 23.6743 46.3099 23.2854 46.3092 22.8797V22.8797ZM19.4428 3.77771H40.5567C40.6499 3.77783 40.7393 3.81491 40.8052 3.88082C40.8711 3.94672 40.9082 4.03607 40.9083 4.12927V14.8482H19.0913V4.12927C19.0915 4.03611 19.1286 3.94683 19.1945 3.88095C19.2604 3.81508 19.3497 3.77796 19.4428 3.77771V3.77771ZM19.0913 18.5874V16.4888H40.9083V18.5874C40.9083 18.6806 40.8713 18.7701 40.8053 18.836C40.7394 18.9019 40.65 18.939 40.5567 18.939H19.4428C19.3496 18.9388 19.2603 18.9018 19.1944 18.8359C19.1285 18.7699 19.0914 18.6806 19.0913 18.5874V18.5874ZM28.2249 20.5791H31.7752L32.4033 24.4093H27.5963L28.2249 20.5791ZM8.79001 20.7816C8.65773 20.7845 8.5262 20.7609 8.40315 20.7123C8.28009 20.6636 8.16799 20.5909 8.07342 20.4984C7.97885 20.4058 7.9037 20.2953 7.85241 20.1734C7.80111 20.0514 7.77468 19.9204 7.77468 19.7881C7.77468 19.6558 7.80111 19.5248 7.85241 19.4028C7.9037 19.2809 7.97885 19.1704 8.07342 19.0778C8.16799 18.9853 8.28009 18.9126 8.40315 18.8639C8.5262 18.8153 8.65773 18.7917 8.79001 18.7946H14.281V20.7816H8.79001ZM7.38376 15.166H12.8747V17.154H7.38376C7.12388 17.1483 6.87654 17.0411 6.69474 16.8553C6.51294 16.6695 6.41113 16.4199 6.41113 16.16C6.41113 15.9 6.51294 15.6504 6.69474 15.4646C6.87654 15.2788 7.12388 15.1716 7.38376 15.166V15.166ZM6.39001 23.416C6.39026 23.1525 6.49504 22.8999 6.68135 22.7136C6.86766 22.5273 7.12028 22.4225 7.38376 22.4222H12.8747V24.4093H7.38376C7.12044 24.409 6.86797 24.3044 6.68168 24.1183C6.4954 23.9322 6.39051 23.6798 6.39001 23.4165V23.416ZM3.77673 26.0504H56.2233V30.0947H3.77673V26.0504ZM52.1606 43.1597H37.6322V31.7354H52.1606V43.1597ZM6.19876 56.2238H3.77673V31.7354H6.19876V56.2238ZM7.83939 49.6918V31.7354H35.9916V49.6913L7.83939 49.6918ZM37.6322 44.8008H52.1606V56.2243H37.6322V44.8008ZM53.8013 56.2243V31.7354H56.2233V56.2233L53.8013 56.2243Z" fill="#48485C"/>
</svg>
