<svg width="60" height="61" viewBox="0 0 60 61" fill="none" xmlns="http://www.w3.org/2000/svg">
<path d="M57.0436 52.127H54.3408V19.6708C54.3408 19.5398 54.3095 19.4108 54.2495 19.2944C54.1895 19.1781 54.1025 19.0778 53.9958 19.0019L30.4753 2.28953C30.3364 2.19095 30.1703 2.138 30 2.138C29.8297 2.138 29.6636 2.19095 29.5247 2.28953L6.00423 19.0019C5.89754 19.0778 5.81056 19.1781 5.75054 19.2944C5.69053 19.4108 5.65922 19.5398 5.65923 19.6708V52.127H2.95642C2.84868 52.127 2.74198 52.1481 2.64243 52.1893C2.54288 52.2305 2.45242 52.291 2.37624 52.3672C2.30005 52.4433 2.23963 52.5338 2.19843 52.6333C2.15722 52.7329 2.13605 52.8396 2.13611 52.9473V57.0437C2.13605 57.1515 2.15722 57.2582 2.19843 57.3577C2.23963 57.4573 2.30005 57.5477 2.37624 57.6239C2.45242 57.7001 2.54288 57.7605 2.64243 57.8017C2.74198 57.8429 2.84868 57.8641 2.95642 57.8641H57.0436C57.1514 57.8641 57.2581 57.8429 57.3576 57.8017C57.4572 57.7605 57.5476 57.7001 57.6238 57.6239C57.7 57.5477 57.7604 57.4573 57.8016 57.3577C57.8428 57.2582 57.864 57.1515 57.8639 57.0437V52.9473C57.864 52.8396 57.8428 52.7329 57.8016 52.6333C57.7604 52.5338 57.7 52.4433 57.6238 52.3672C57.5476 52.291 57.4572 52.2305 57.3576 52.1893C57.2581 52.1481 57.1514 52.127 57.0436 52.127V52.127ZM7.29986 20.0941L30 3.96484L52.7002 20.0941V52.127H49.2403V24.8064C49.2404 24.6987 49.2192 24.592 49.178 24.4924C49.1368 24.3929 49.0764 24.3024 49.0002 24.2262C48.924 24.15 48.8336 24.0896 48.734 24.0484C48.6345 24.0072 48.5278 23.986 48.42 23.9861H11.5781C11.4704 23.986 11.3637 24.0072 11.2641 24.0484C11.1646 24.0896 11.0741 24.15 10.998 24.2262C10.9218 24.3024 10.8613 24.3929 10.8201 24.4924C10.7789 24.592 10.7578 24.6987 10.7578 24.8064V52.127H7.29986V20.0941ZM41.4497 52.127V42.3194C41.4497 42.1018 41.3633 41.8932 41.2094 41.7393C41.0556 41.5855 40.847 41.4991 40.6294 41.4991H36.135V31.6895C36.135 31.472 36.0486 31.2633 35.8948 31.1095C35.7409 30.9556 35.5323 30.8692 35.3147 30.8692H24.6853C24.4678 30.8692 24.2591 30.9556 24.1053 31.1095C23.9514 31.2633 23.865 31.472 23.865 31.6895V41.4991H19.3706C19.1531 41.4991 18.9444 41.5855 18.7906 41.7393C18.6368 41.8932 18.5503 42.1018 18.5503 42.3194V52.127H12.4003V25.6267H47.5997V52.127H41.4497ZM20.191 52.127V46.4003H29.1797V52.127H20.191ZM39.8091 44.7597H30.8203V43.1397H39.8091V44.7597ZM34.4944 34.1303H25.5056V32.5103H34.4944V34.1303ZM25.5056 35.7709H34.4944V41.4991H25.5056V35.7709ZM29.1797 43.1397V44.7597H20.191V43.1397H29.1797ZM30.8203 46.4003H39.8091V52.127H30.8203V46.4003ZM56.2233 56.2253H3.77673V53.7676H56.2233V56.2253Z" fill="#48485C"/>
<path d="M26.8046 22.1026H33.1955C33.4131 22.1026 33.6217 22.0162 33.7756 21.8624C33.9294 21.7085 34.0158 21.4999 34.0158 21.2823V18.0587C34.0157 17.8412 33.9292 17.6326 33.7754 17.4788C33.6216 17.325 33.413 17.2385 33.1955 17.2384H26.8046C26.587 17.2385 26.3785 17.325 26.2247 17.4788C26.0708 17.6326 25.9844 17.8412 25.9843 18.0587V21.2832C25.9845 21.5006 26.071 21.7091 26.2248 21.8627C26.3787 22.0163 26.5872 22.1026 26.8046 22.1026V22.1026ZM27.6249 18.879H32.3752V20.462H27.6249V18.879Z" fill="#FFDF30"/>
<path d="M36.5944 22.1026H42.9844C43.2019 22.1026 43.4106 22.0162 43.5644 21.8624C43.7182 21.7085 43.8047 21.4999 43.8047 21.2823V18.0587C43.8045 17.8412 43.7181 17.6326 43.5643 17.4788C43.4105 17.325 43.2019 17.2385 42.9844 17.2384H36.5944C36.3768 17.2385 36.1683 17.325 36.0144 17.4788C35.8606 17.6326 35.7742 17.8412 35.774 18.0587V21.2832C35.7743 21.5006 35.8608 21.7091 36.0146 21.8627C36.1685 22.0163 36.377 22.1026 36.5944 22.1026V22.1026ZM37.4147 18.879H42.1645V20.462H37.4147V18.879Z" fill="#FFDF30"/>
<path d="M17.0156 22.1026H23.4056C23.6232 22.1026 23.8318 22.0162 23.9857 21.8624C24.1395 21.7085 24.2259 21.4999 24.2259 21.2823V18.0587C24.2258 17.8412 24.1393 17.6326 23.9855 17.4788C23.8317 17.325 23.6231 17.2385 23.4056 17.2384H17.0156C16.7981 17.2385 16.5895 17.325 16.4357 17.4788C16.2819 17.6326 16.1954 17.8412 16.1953 18.0587V21.2832C16.1956 21.5006 16.2821 21.7091 16.4359 21.8627C16.5897 22.0163 16.7982 22.1026 17.0156 22.1026V22.1026ZM17.8359 18.879H22.5853V20.462H17.8355L17.8359 18.879Z" fill="#FFDF30"/>
</svg>
