<svg width="60" height="61" viewBox="0 0 60 61" fill="none" xmlns="http://www.w3.org/2000/svg">
<path d="M51.9094 19.4495H54C54.2176 19.4495 54.4262 19.3631 54.58 19.2093C54.7339 19.0554 54.8203 18.8468 54.8203 18.6292V12.8927C54.8203 12.6751 54.7339 12.4665 54.58 12.3126C54.4262 12.1588 54.2176 12.0724 54 12.0724H51.9094V8.75079C51.9094 8.53323 51.8229 8.32458 51.6691 8.17075C51.5153 8.01691 51.3066 7.93048 51.0891 7.93048H8.91094C8.8032 7.93042 8.6965 7.9516 8.59694 7.9928C8.49739 8.034 8.40694 8.09442 8.33075 8.17061C8.25457 8.24679 8.19414 8.33725 8.15294 8.4368C8.11174 8.53635 8.09056 8.64305 8.09063 8.75079V12.071H6C5.89226 12.0709 5.78556 12.0921 5.68601 12.1333C5.58645 12.1745 5.496 12.2349 5.41981 12.3111C5.34363 12.3873 5.28321 12.4777 5.242 12.5773C5.2008 12.6768 5.17963 12.7835 5.17969 12.8913V18.6292C5.17963 18.737 5.2008 18.8437 5.242 18.9432C5.28321 19.0428 5.34363 19.1332 5.41981 19.2094C5.496 19.2856 5.58645 19.346 5.68601 19.3872C5.78556 19.4284 5.89226 19.4496 6 19.4495H8.09063V48.8978H6C5.78244 48.8978 5.57379 48.9843 5.41995 49.1381C5.26611 49.2919 5.17969 49.5006 5.17969 49.7181V53.1049C5.17963 53.2126 5.2008 53.3193 5.242 53.4188C5.28321 53.5184 5.34363 53.6089 5.41981 53.685C5.496 53.7612 5.58645 53.8216 5.68601 53.8629C5.78556 53.9041 5.89226 53.9252 6 53.9252H54C54.2176 53.9252 54.4262 53.8387 54.58 53.6849C54.7339 53.5311 54.8203 53.3224 54.8203 53.1049V49.7181C54.8202 49.5006 54.7337 49.292 54.5799 49.1382C54.4261 48.9844 54.2175 48.8979 54 48.8978H51.9094V19.4495ZM50.2687 28.877H46.6636V27.3625H50.2687V28.877ZM50.2687 25.7233H45.8438C45.6262 25.7233 45.4175 25.8097 45.2637 25.9636C45.1099 26.1174 45.0234 26.326 45.0234 26.5436V48.8992H30.8203V19.4495H50.2687V25.7233ZM9.73125 9.57111H50.2687V12.071H9.73125V9.57111ZM6.82031 13.7116H53.1797V17.8089H6.82031V13.7116ZM29.1797 19.4495V48.8978H14.9766V26.5422C14.9766 26.3246 14.8901 26.116 14.7363 25.9622C14.5825 25.8083 14.3738 25.7219 14.1563 25.7219H9.73125V19.4495H29.1797ZM9.73125 27.3625H13.3364V28.877H9.73125V27.3625ZM9.73125 30.5163H13.3364V48.8978H9.73125V30.5163ZM53.1797 52.2845H6.82031V50.5385H53.1797V52.2845ZM46.6641 48.8978V30.5177H50.2692V48.8992L46.6641 48.8978Z" fill="#48485C"/>
<path d="M21.0938 37.5021C21.1592 37.645 21.2642 37.7662 21.3965 37.8511C21.5287 37.9361 21.6826 37.9812 21.8398 37.9812C21.997 37.9812 22.1509 37.9361 22.2831 37.8511C22.4154 37.7662 22.5205 37.645 22.5858 37.5021L26.5416 28.8564C26.5988 28.7314 26.6236 28.5941 26.6139 28.457C26.6041 28.32 26.5601 28.1875 26.4859 28.0719C26.4117 27.9562 26.3096 27.861 26.189 27.7951C26.0685 27.7291 25.9333 27.6945 25.7958 27.6944H24.3802C24.5742 27.269 24.6583 26.8016 24.6247 26.3352C24.5912 25.8689 24.4411 25.4184 24.1881 25.0251C23.9352 24.6318 23.5876 24.3083 23.1772 24.0843C22.7668 23.8603 22.3067 23.7429 21.8391 23.7429C21.3715 23.7429 20.9114 23.8603 20.501 24.0843C20.0906 24.3083 19.743 24.6318 19.4901 25.0251C19.2372 25.4184 19.0871 25.8689 19.0535 26.3352C19.0199 26.8016 19.104 27.269 19.298 27.6944H17.8833C17.7459 27.6944 17.6106 27.7289 17.49 27.7949C17.3693 27.8608 17.2672 27.9559 17.1929 28.0716C17.1187 28.1873 17.0747 28.3198 17.065 28.457C17.0553 28.5941 17.0803 28.7315 17.1376 28.8564L21.0938 37.5021ZM20.6874 26.5422C20.6874 26.3143 20.755 26.0916 20.8816 25.9021C21.0082 25.7126 21.1881 25.5649 21.3987 25.4777C21.6092 25.3905 21.8409 25.3677 22.0644 25.4122C22.2879 25.4566 22.4932 25.5664 22.6543 25.7275C22.8154 25.8886 22.9252 26.0939 22.9696 26.3174C23.0141 26.5409 22.9913 26.7726 22.9041 26.9831C22.8169 27.1937 22.6692 27.3736 22.4797 27.5002C22.2902 27.6268 22.0675 27.6944 21.8396 27.6944C21.534 27.6941 21.2411 27.5727 21.025 27.3567C20.8089 27.1407 20.6873 26.8478 20.6869 26.5422H20.6874ZM24.5185 29.335L21.8391 35.1888L19.1607 29.335H24.5185Z" fill="#FFDF30"/>
<path d="M32.8026 37.5911C32.876 37.7103 32.9786 37.8087 33.1008 37.877C33.223 37.9453 33.3606 37.9811 33.5006 37.9811H42.1204C42.2604 37.981 42.398 37.9451 42.5202 37.8769C42.6423 37.8086 42.745 37.7103 42.8185 37.5912C42.892 37.472 42.9337 37.3361 42.9399 37.1963C42.946 37.0565 42.9163 36.9174 42.8536 36.7923L39.0042 29.1283C39.5777 28.8571 40.0419 28.3988 40.3202 27.8287C40.5985 27.2586 40.6745 26.6107 40.5355 25.9917C40.3966 25.3727 40.051 24.8195 39.5557 24.423C39.0604 24.0266 38.4449 23.8106 37.8105 23.8106C37.1761 23.8106 36.5606 24.0266 36.0653 24.423C35.57 24.8195 35.2245 25.3727 35.0855 25.9917C34.9466 26.6107 35.0225 27.2586 35.3008 27.8287C35.5792 28.3988 36.0433 28.8571 36.6168 29.1283L32.7656 36.7923C32.7031 36.9176 32.6737 37.0567 32.6802 37.1965C32.6867 37.3364 32.7288 37.4722 32.8026 37.5911V37.5911ZM37.8108 25.4552C38.0386 25.4552 38.2614 25.5227 38.4509 25.6493C38.6404 25.7759 38.788 25.9559 38.8752 26.1664C38.9624 26.377 38.9853 26.6086 38.9408 26.8321C38.8963 27.0556 38.7866 27.2609 38.6255 27.4221C38.4643 27.5832 38.259 27.6929 38.0355 27.7374C37.812 27.7819 37.5804 27.759 37.3698 27.6718C37.1593 27.5846 36.9794 27.4369 36.8527 27.2475C36.7261 27.058 36.6586 26.8352 36.6586 26.6073C36.6588 26.3018 36.7803 26.0089 36.9963 25.7929C37.2123 25.5769 37.5053 25.4554 37.8108 25.4552V25.4552ZM37.8108 30.4075L40.7906 36.3405H34.8309L37.8108 30.4075Z" fill="#FFDF30"/>
</svg>
