<svg width="60" height="60" viewBox="0 0 60 60" fill="none" xmlns="http://www.w3.org/2000/svg">
<g clip-path="url(#clip0_31_5030)">
<path d="M30 0.000976562C22.8885 0.000976562 6.72815 21.2927 6.72815 36.7292C6.72815 49.5819 17.1472 60.001 30 60.001C42.8527 60.001 53.2718 49.5819 53.2718 36.7292C53.2718 21.3459 37.1114 0.000976562 30 0.000976562ZM30 57.8718C18.3281 57.8601 8.86903 48.401 8.85732 36.7292C8.85732 22.1443 24.4854 2.13015 30 2.13015C35.5145 2.13015 51.1426 22.1337 51.1426 36.7292C51.1309 48.401 41.6718 57.8601 30 57.8718Z" fill="#48485C"/>
<path d="M44.2548 35.771L27.4663 11.903C27.1711 11.5067 26.642 11.3657 26.1888 11.5624C25.7318 11.7535 25.4671 12.2345 25.55 12.7228L27.9986 26.9137L17.4592 26.6795C16.8714 26.6667 16.3845 27.1327 16.3716 27.7206C16.366 27.9776 16.4536 28.228 16.6182 28.4254L35.9617 51.8995C36.3361 52.3527 37.0072 52.4166 37.4605 52.042C37.7892 51.7704 37.9241 51.329 37.8034 50.9201L33.8006 37.4531H43.3818C43.9698 37.4563 44.449 36.9821 44.4521 36.3942C44.4533 36.1709 44.3843 35.9529 44.2548 35.771ZM32.374 35.3239C31.7865 35.3002 31.2911 35.7573 31.2675 36.3448C31.2629 36.4603 31.2771 36.5757 31.3094 36.6866L34.2583 46.502L19.7374 28.8619L29.2441 29.0748C29.5602 29.0688 29.86 28.9343 30.0745 28.7022C30.2701 28.4726 30.359 28.1708 30.3194 27.8718L28.4457 17.013L41.3698 35.3239H32.374V35.3239Z" fill="#FFDF30"/>
</g>
<defs>
<clipPath id="clip0_31_5030">
<rect width="60" height="60" fill="white" transform="translate(0 0.000976562)"/>
</clipPath>
</defs>
</svg>
