<svg width="60" height="60" viewBox="0 0 60 60" fill="none" xmlns="http://www.w3.org/2000/svg">
<path d="M57.0436 17.0948C57.1514 17.0949 57.2581 17.0737 57.3576 17.0325C57.4572 16.9913 57.5476 16.9309 57.6238 16.8547C57.7 16.7785 57.7604 16.6881 57.8016 16.5885C57.8428 16.489 57.864 16.3823 57.8639 16.2745V12.375C57.8639 12.1574 57.7775 11.9488 57.6237 11.795C57.4698 11.6411 57.2612 11.5547 57.0436 11.5547H6.93751C6.71995 11.5547 6.5113 11.6411 6.35747 11.795C6.20363 11.9488 6.1172 12.1574 6.1172 12.375V16.2731C6.11714 16.3809 6.13832 16.4876 6.17952 16.5871C6.22072 16.6867 6.28114 16.7771 6.35733 16.8533C6.43351 16.9295 6.52397 16.9899 6.62352 17.0311C6.72307 17.0723 6.82977 17.0935 6.93751 17.0934H7.79064V21.3122H6.60376V19.6903C6.60376 19.4728 6.51734 19.2641 6.3635 19.1103C6.20966 18.9564 6.00101 18.87 5.78345 18.87C5.56589 18.87 5.35724 18.9564 5.2034 19.1103C5.04957 19.2641 4.96314 19.4728 4.96314 19.6903V21.3122H2.95642C2.84868 21.3121 2.74198 21.3333 2.64243 21.3745C2.54288 21.4157 2.45242 21.4761 2.37624 21.5523C2.30005 21.6285 2.23963 21.719 2.19843 21.8185C2.15722 21.9181 2.13605 22.0248 2.13611 22.1325V25.0238C2.13605 25.1315 2.15722 25.2382 2.19843 25.3377C2.23963 25.4373 2.30005 25.5278 2.37624 25.6039C2.45242 25.6801 2.54288 25.7405 2.64243 25.7817C2.74198 25.8229 2.84868 25.8441 2.95642 25.8441H4.96314V34.155H2.95642C2.84868 34.1549 2.74198 34.1761 2.64243 34.2173C2.54288 34.2585 2.45242 34.3189 2.37624 34.3951C2.30005 34.4713 2.23963 34.5618 2.19843 34.6613C2.15722 34.7609 2.13605 34.8676 2.13611 34.9753V37.8666C2.13605 37.9743 2.15722 38.081 2.19843 38.1806C2.23963 38.2801 2.30005 38.3706 2.37624 38.4467C2.45242 38.5229 2.54288 38.5834 2.64243 38.6246C2.74198 38.6658 2.84868 38.6869 2.95642 38.6869H4.96314V40.3087C4.96314 40.5263 5.04957 40.735 5.2034 40.8888C5.35724 41.0426 5.56589 41.1291 5.78345 41.1291C6.00101 41.1291 6.20966 41.0426 6.3635 40.8888C6.51734 40.735 6.60376 40.5263 6.60376 40.3087V38.6869H7.79017V42.9056H6.93751C6.82977 42.9056 6.72307 42.9267 6.62352 42.9679C6.52397 43.0091 6.43351 43.0696 6.35733 43.1458C6.28114 43.2219 6.22072 43.3124 6.17952 43.4119C6.13832 43.5115 6.11714 43.6182 6.1172 43.7259V47.625C6.1172 47.8426 6.20363 48.0512 6.35747 48.2051C6.5113 48.3589 6.71995 48.4453 6.93751 48.4453H57.0436C57.2612 48.4453 57.4698 48.3589 57.6237 48.2051C57.7775 48.0512 57.8639 47.8426 57.8639 47.625V43.7255C57.864 43.6177 57.8428 43.511 57.8016 43.4115C57.7604 43.3119 57.7 43.2215 57.6238 43.1453C57.5476 43.0691 57.4572 43.0087 57.3576 42.9675C57.2581 42.9263 57.1514 42.9051 57.0436 42.9052H56.1905V17.0948H57.0436ZM7.75736 13.1967H56.2233V15.4542H7.75736V13.1967ZM3.77673 22.9533H7.79017V24.2039H3.77673V22.9533ZM6.60376 25.8445H7.79017V34.1555H6.60376V25.8445ZM3.77673 37.0477V35.7961H7.79017V37.0467L3.77673 37.0477ZM56.2233 46.8033H7.75736V44.5458H56.2233V46.8033ZM54.5499 42.9052H9.4308V17.0948H54.5499V42.9052Z" fill="#48485C"/>
<path d="M37.7316 33.1295C37.8393 33.1296 37.946 33.1084 38.0456 33.0672C38.1451 33.026 38.2356 32.9656 38.3118 32.8894C38.3879 32.8132 38.4484 32.7228 38.4896 32.6232C38.5308 32.5237 38.5519 32.417 38.5519 32.3092V19.6908C38.5519 19.4732 38.4655 19.2646 38.3116 19.1107C38.1578 18.9569 37.9491 18.8705 37.7316 18.8705C37.514 18.8705 37.3054 18.9569 37.1515 19.1107C36.9977 19.2646 36.9113 19.4732 36.9113 19.6908V32.3092C36.9112 32.417 36.9324 32.5237 36.9736 32.6232C37.0148 32.7228 37.0752 32.8132 37.1514 32.8894C37.2276 32.9656 37.318 33.026 37.4176 33.0672C37.5171 33.1084 37.6238 33.1296 37.7316 33.1295Z" fill="#FFDF30"/>
<path d="M25.4297 32.3092C25.4296 32.4169 25.4508 32.5236 25.492 32.6232C25.5332 32.7227 25.5936 32.8132 25.6698 32.8894C25.746 32.9656 25.8364 33.026 25.936 33.0672C26.0355 33.1084 26.1422 33.1296 26.25 33.1295L37.7109 33.1295C37.9285 33.1295 38.1371 33.0431 38.291 32.8893C38.4448 32.7354 38.5312 32.5268 38.5312 32.3092C38.5312 32.0916 38.4448 31.883 38.291 31.7292C38.1371 31.5753 37.9285 31.4889 37.7109 31.4889L26.25 31.4889C26.1422 31.4888 26.0355 31.51 25.936 31.5512C25.8364 31.5924 25.746 31.6528 25.6698 31.729C25.5936 31.8052 25.5332 31.8957 25.492 31.9952C25.4508 32.0948 25.4296 32.2015 25.4297 32.3092Z" fill="#FFDF30"/>
<path d="M25.4503 19.6908C25.4502 19.7985 25.4714 19.9052 25.5126 20.0048C25.5538 20.1043 25.6142 20.1948 25.6904 20.271C25.7666 20.3472 25.8571 20.4076 25.9566 20.4488C26.0562 20.49 26.1629 20.5112 26.2706 20.5111L37.7316 20.5111C37.9491 20.5111 38.1578 20.4247 38.3116 20.2708C38.4655 20.117 38.5519 19.9084 38.5519 19.6908C38.5519 19.4732 38.4655 19.2646 38.3116 19.1107C38.1578 18.9569 37.9491 18.8705 37.7316 18.8705L26.2706 18.8705C26.1629 18.8704 26.0562 18.8916 25.9566 18.9328C25.8571 18.974 25.7666 19.0344 25.6904 19.1106C25.6142 19.1868 25.5538 19.2772 25.5126 19.3768C25.4714 19.4764 25.4502 19.5831 25.4503 19.6908Z" fill="#FFDF30"/>
<path d="M43.4728 41.1295C43.5805 41.1296 43.6872 41.1084 43.7868 41.0672C43.8863 41.026 43.9768 40.9656 44.053 40.8894C44.1292 40.8132 44.1896 40.7228 44.2308 40.6232C44.272 40.5237 44.2932 40.417 44.2931 40.3092V19.6908C44.2931 19.4732 44.2067 19.2646 44.0528 19.1107C43.899 18.9569 43.6903 18.8705 43.4728 18.8705C43.2552 18.8705 43.0466 18.9569 42.8927 19.1107C42.7389 19.2646 42.6525 19.4732 42.6525 19.6908V40.3092C42.6524 40.417 42.6736 40.5237 42.7148 40.6232C42.756 40.7228 42.8164 40.8132 42.8926 40.8894C42.9688 40.9656 43.0592 41.026 43.1588 41.0672C43.2583 41.1084 43.365 41.1296 43.4728 41.1295Z" fill="#48485C"/>
<path d="M49.2141 41.1295C49.3219 41.1296 49.4286 41.1084 49.5281 41.0672C49.6277 41.026 49.7181 40.9656 49.7943 40.8894C49.8705 40.8132 49.9309 40.7228 49.9721 40.6232C50.0133 40.5237 50.0345 40.417 50.0344 40.3092V19.6908C50.0344 19.4732 49.948 19.2646 49.7942 19.1107C49.6403 18.9569 49.4317 18.8705 49.2141 18.8705C48.9966 18.8705 48.7879 18.9569 48.6341 19.1107C48.4802 19.2646 48.3938 19.4732 48.3938 19.6908V40.3092C48.3937 40.417 48.4149 40.5237 48.4561 40.6232C48.4973 40.7228 48.5577 40.8132 48.6339 40.8894C48.7101 40.9656 48.8006 41.026 48.9001 41.0672C48.9997 41.1084 49.1064 41.1296 49.2141 41.1295Z" fill="#48485C"/>
<path d="M14.7656 41.1295C14.8734 41.1296 14.9801 41.1084 15.0796 41.0672C15.1792 41.026 15.2696 40.9656 15.3458 40.8894C15.422 40.8132 15.4824 40.7228 15.5236 40.6232C15.5648 40.5237 15.586 40.417 15.5859 40.3092V19.6908C15.5859 19.4732 15.4995 19.2646 15.3457 19.1107C15.1918 18.9569 14.9832 18.8705 14.7656 18.8705C14.5481 18.8705 14.3394 18.9569 14.1856 19.1107C14.0317 19.2646 13.9453 19.4732 13.9453 19.6908V40.3092C13.9453 40.417 13.9664 40.5237 14.0076 40.6232C14.0488 40.7228 14.1093 40.8132 14.1854 40.8894C14.2616 40.9656 14.3521 41.026 14.4516 41.0672C14.5512 41.1084 14.6579 41.1296 14.7656 41.1295V41.1295Z" fill="#48485C"/>
<path d="M20.5078 41.1295C20.6156 41.1296 20.7223 41.1084 20.8218 41.0672C20.9214 41.026 21.0118 40.9656 21.088 40.8894C21.1642 40.8132 21.2246 40.7228 21.2658 40.6232C21.307 40.5237 21.3282 40.417 21.3281 40.3092V19.6908C21.3281 19.4732 21.2417 19.2646 21.0879 19.1107C20.934 18.9569 20.7254 18.8705 20.5078 18.8705C20.2903 18.8705 20.0816 18.9569 19.9278 19.1107C19.7739 19.2646 19.6875 19.4732 19.6875 19.6908V40.3092C19.6874 40.417 19.7086 40.5237 19.7498 40.6232C19.791 40.7228 19.8514 40.8132 19.9276 40.8894C20.0038 40.9656 20.0943 41.026 20.1938 41.0672C20.2934 41.1084 20.4001 41.1296 20.5078 41.1295V41.1295Z" fill="#48485C"/>
<path d="M26.25 33.1295C26.3577 33.1296 26.4644 33.1084 26.564 33.0672C26.6635 33.026 26.754 32.9656 26.8302 32.8894C26.9064 32.8132 26.9668 32.7228 27.008 32.6232C27.0492 32.5237 27.0704 32.417 27.0703 32.3092V19.6908C27.0703 19.4732 26.9839 19.2646 26.83 19.1107C26.6762 18.9569 26.4676 18.8705 26.25 18.8705C26.0324 18.8705 25.8238 18.9569 25.67 19.1107C25.5161 19.2646 25.4297 19.4732 25.4297 19.6908V32.3092C25.4296 32.417 25.4508 32.5237 25.492 32.6232C25.5332 32.7228 25.5936 32.8132 25.6698 32.8894C25.746 32.9656 25.8365 33.026 25.936 33.0672C26.0356 33.1084 26.1423 33.1296 26.25 33.1295Z" fill="#FFDF30"/>
</svg>
