<svg width="78" height="55" viewBox="0 0 78 55" fill="none" xmlns="http://www.w3.org/2000/svg">
<path d="M0 47.9875C0 47.5406 0.0684242 47.0594 0.136845 46.5094H5.5079C5.74737 49.6375 7.93684 50.2906 9.81842 50.2906C12.7263 50.2906 14.5395 48.7781 14.5395 46.0281C14.5395 43.2781 12.35 41.9719 8.27895 41.9719C7.76579 41.9719 7.28684 41.9719 6.77368 42.0062L5.09737 39.05L11.4947 33.7219L11.3921 33.4469H1.33421V29.2188H19.4316V33L12.4868 38.3969L12.5895 38.6031C17.4132 38.9469 20.3211 41.5594 20.3211 45.925C20.3211 51.425 16.25 54.5875 9.61316 54.5875C4.78948 54.5875 0 52.7656 0 47.9875Z" fill="#FFDF30"/>
<path d="M20.2184 47.9875C20.2184 47.5406 20.2868 47.0594 20.3552 46.5094H25.7263C25.9657 49.6375 28.1552 50.2906 30.0368 50.2906C32.9447 50.2906 34.7578 48.7781 34.7578 46.0281C34.7578 43.2781 32.5684 41.9719 28.4973 41.9719C27.9842 41.9719 27.5052 41.9719 26.9921 42.0062L25.3157 39.05L31.7131 33.7219L31.6105 33.4469H21.5526V29.2188H39.65V33L32.7052 38.3969L32.8079 38.6031C37.6315 38.9469 40.5394 41.5594 40.5394 45.925C40.5394 51.425 36.4684 54.5875 29.8315 54.5875C25.0079 54.5875 20.2184 52.7656 20.2184 47.9875Z" fill="#FFDF30"/>
<path d="M47.2106 53.1436L45.7737 50.5998C45.4658 50.0498 45.2264 49.4998 44.9527 48.9498H44.85V54.5873H41.8053C41.8053 51.2529 41.8395 47.8842 41.8395 44.5498H45.2264L47.1421 47.9185C47.5527 48.6748 47.929 49.4654 48.2369 50.256H48.4079C48.8869 49.2935 49.1948 48.6404 49.7079 47.6779L51.3842 44.5498H54.7711V54.5873H51.7606V48.9154H51.5895C51.4185 49.3967 50.8369 50.5654 50.6658 50.8404L49.4 53.1779H47.2106V53.1436Z" fill="#FFDF30"/>
<path d="M55.4552 43.1062C55.4552 42.9687 55.421 42.8312 55.421 42.728C55.421 41.5593 56.6526 41.0093 57.7816 41.0093C59.4579 41.0093 60.1079 41.7312 60.1079 42.6249C60.1079 44.1374 58.1579 44.4124 57.5421 45.1343H60.1421V46.5437H55.2842V45.9249C55.2842 44.7562 56.071 44.103 57.371 43.4499C57.9184 43.1749 58.1579 43.0374 58.1579 42.7968C58.1579 42.6593 58.0894 42.453 57.7131 42.453C57.5079 42.453 57.1658 42.6593 57.1316 43.1405H55.4552V43.1062Z" fill="#FFDF30"/>
<path d="M73.3131 0.6875H6.02104H1.36841V5.3625V25.7812H6.02104V5.3625H73.3131V49.8781H57.7474V54.5875H73.3131H78V49.8781V5.3625V0.6875H73.3131Z" fill="#FFDF30"/>
</svg>
